<svg width="666" height="533" viewBox="0 0 666 533" fill="none" xmlns="http://www.w3.org/2000/svg"> <path fill-rule="evenodd" clip-rule="evenodd" d="M310.919 1.13928C397.911 14.1284 390.845 140.374 453.281 198.65C516.06 257.246 657.035 249.482 665.568 332.161C673.942 413.305 558.738 452.988 483.79 494.285C431.064 523.339 372.005 524.884 310.919 527.579C244.864 530.494 175.909 544.822 120.977 510.294C56.1574 469.552 1.29921 405.332 0.0192906 332.161C-1.27262 258.305 62.5812 203.516 114.641 148.086C172.165 86.8394 224.972 -11.6936 310.919 1.13928Z" fill="#FECC18"/> <path d="M319.123 460C436.967 460 532.498 454.423 532.498 447.542C532.498 440.662 436.967 435.085 319.123 435.085C201.28 435.085 105.749 440.662 105.749 447.542C105.749 454.423 201.28 460 319.123 460Z" fill="#F5F5F5"/> <path d="M242.584 289.291C241.932 289.249 241.32 288.959 240.873 288.482C240.426 288.005 240.177 287.376 240.177 286.722C240.177 286.068 240.426 285.439 240.873 284.961C241.32 284.484 241.932 284.195 242.584 284.152C248.879 284.152 254.183 275.139 254.183 264.464C254.226 263.812 254.515 263.2 254.993 262.753C255.47 262.306 256.099 262.057 256.753 262.057C257.407 262.057 258.036 262.306 258.513 262.753C258.991 263.2 259.28 263.812 259.323 264.464C259.323 278.385 251.993 289.291 242.584 289.291Z" fill="#2951A7"/> <path d="M281.421 289.291C280.768 289.249 280.156 288.959 279.709 288.482C279.262 288.005 279.014 287.376 279.014 286.722C279.014 286.068 279.262 285.439 279.709 284.961C280.156 284.484 280.768 284.195 281.421 284.152C287.715 284.152 293.02 275.139 293.02 264.464C293.062 263.812 293.352 263.2 293.829 262.753C294.306 262.306 294.936 262.057 295.589 262.057C296.243 262.057 296.873 262.306 297.35 262.753C297.827 263.2 298.116 263.812 298.159 264.464C298.214 278.385 290.808 289.291 281.421 289.291Z" fill="#2951A7"/> <path d="M320.224 289.291C319.572 289.249 318.96 288.959 318.513 288.482C318.066 288.005 317.817 287.376 317.817 286.722C317.817 286.068 318.066 285.439 318.513 284.961C318.96 284.484 319.572 284.195 320.224 284.152C326.508 284.152 331.823 275.139 331.823 264.464C331.823 263.784 332.093 263.132 332.574 262.651C333.055 262.17 333.707 261.9 334.387 261.9C335.067 261.9 335.72 262.17 336.2 262.651C336.681 263.132 336.951 263.784 336.951 264.464C336.984 278.386 329.644 289.291 320.224 289.291Z" fill="#2951A7"/> <path d="M359.093 289.291C358.742 289.314 358.389 289.265 358.057 289.146C357.726 289.028 357.422 288.842 357.165 288.601C356.908 288.36 356.703 288.069 356.562 287.746C356.422 287.423 356.35 287.074 356.35 286.722C356.35 286.369 356.422 286.021 356.562 285.698C356.703 285.374 356.908 285.083 357.165 284.842C357.422 284.601 357.726 284.416 358.057 284.297C358.389 284.178 358.742 284.129 359.093 284.152C365.377 284.152 370.693 275.139 370.693 264.464C370.693 263.784 370.963 263.132 371.444 262.651C371.924 262.17 372.577 261.9 373.257 261.9C373.937 261.9 374.589 262.17 375.07 262.651C375.551 263.132 375.821 263.784 375.821 264.464C375.821 278.386 368.47 289.291 359.093 289.291Z" fill="#2951A7"/> <path d="M397.919 289.291C397.266 289.249 396.655 288.959 396.208 288.482C395.761 288.005 395.512 287.376 395.512 286.722C395.512 286.068 395.761 285.439 396.208 284.961C396.655 284.484 397.266 284.195 397.919 284.152C404.214 284.152 409.518 275.139 409.518 264.464C409.561 263.812 409.85 263.2 410.327 262.753C410.804 262.306 411.434 262.057 412.088 262.057C412.742 262.057 413.371 262.306 413.848 262.753C414.325 263.2 414.615 263.812 414.657 264.464C414.657 278.385 407.306 289.291 397.919 289.291Z" fill="#2951A7"/> <path d="M436.755 289.291C436.103 289.249 435.491 288.959 435.044 288.482C434.597 288.005 434.348 287.376 434.348 286.722C434.348 286.068 434.597 285.439 435.044 284.961C435.491 284.484 436.103 284.195 436.755 284.152C443.039 284.152 448.354 275.139 448.354 264.464C448.397 263.812 448.687 263.2 449.164 262.753C449.641 262.306 450.27 262.057 450.924 262.057C451.578 262.057 452.207 262.306 452.685 262.753C453.162 263.2 453.451 263.812 453.494 264.464C453.494 278.385 446.142 289.291 436.755 289.291Z" fill="#2951A7"/> <g opacity="0.3"> <path opacity="0.3" d="M242.584 289.293C241.932 289.25 241.32 288.961 240.873 288.484C240.426 288.006 240.177 287.377 240.177 286.723C240.177 286.069 240.426 285.44 240.873 284.963C241.32 284.486 241.932 284.196 242.584 284.154C248.879 284.154 254.183 275.141 254.183 264.466C254.226 263.813 254.515 263.202 254.993 262.755C255.47 262.308 256.099 262.059 256.753 262.059C257.407 262.059 258.036 262.308 258.513 262.755C258.991 263.202 259.28 263.813 259.323 264.466C259.323 278.387 251.993 289.293 242.584 289.293Z" fill="black"/> <path opacity="0.3" d="M281.421 289.291C280.768 289.249 280.156 288.959 279.709 288.482C279.262 288.005 279.014 287.376 279.014 286.722C279.014 286.068 279.262 285.439 279.709 284.961C280.156 284.484 280.768 284.195 281.421 284.152C287.715 284.152 293.02 275.139 293.02 264.464C293.062 263.812 293.352 263.2 293.829 262.753C294.306 262.306 294.936 262.057 295.589 262.057C296.243 262.057 296.873 262.306 297.35 262.753C297.827 263.2 298.116 263.812 298.159 264.464C298.214 278.386 290.808 289.291 281.421 289.291Z" fill="black"/> <path opacity="0.3" d="M320.224 289.291C319.572 289.249 318.96 288.959 318.513 288.482C318.066 288.005 317.817 287.376 317.817 286.722C317.817 286.068 318.066 285.439 318.513 284.961C318.96 284.484 319.572 284.195 320.224 284.152C326.508 284.152 331.823 275.139 331.823 264.464C331.823 263.784 332.093 263.132 332.574 262.651C333.055 262.17 333.707 261.9 334.387 261.9C335.067 261.9 335.72 262.17 336.2 262.651C336.681 263.132 336.952 263.784 336.952 264.464C336.985 278.386 329.644 289.291 320.224 289.291Z" fill="black"/> <path opacity="0.3" d="M359.093 289.291C358.742 289.314 358.389 289.265 358.058 289.146C357.726 289.028 357.422 288.842 357.165 288.601C356.908 288.36 356.703 288.069 356.562 287.746C356.422 287.423 356.35 287.074 356.35 286.722C356.35 286.369 356.422 286.021 356.562 285.698C356.703 285.374 356.908 285.083 357.165 284.842C357.422 284.601 357.726 284.416 358.058 284.297C358.389 284.178 358.742 284.129 359.093 284.152C365.377 284.152 370.693 275.139 370.693 264.464C370.693 263.784 370.963 263.132 371.444 262.651C371.925 262.17 372.577 261.9 373.257 261.9C373.937 261.9 374.589 262.17 375.07 262.651C375.551 263.132 375.821 263.784 375.821 264.464C375.821 278.386 368.47 289.291 359.093 289.291Z" fill="black"/> <path opacity="0.3" d="M397.919 289.291C397.266 289.249 396.655 288.959 396.208 288.482C395.761 288.005 395.512 287.376 395.512 286.722C395.512 286.068 395.761 285.439 396.208 284.961C396.655 284.484 397.266 284.195 397.919 284.152C404.214 284.152 409.518 275.139 409.518 264.464C409.561 263.812 409.85 263.2 410.327 262.753C410.804 262.306 411.434 262.057 412.088 262.057C412.742 262.057 413.371 262.306 413.848 262.753C414.325 263.2 414.615 263.812 414.657 264.464C414.657 278.386 407.306 289.291 397.919 289.291Z" fill="black"/> <path opacity="0.3" d="M436.755 289.291C436.103 289.249 435.491 288.959 435.044 288.482C434.597 288.005 434.348 287.376 434.348 286.722C434.348 286.068 434.597 285.439 435.044 284.961C435.491 284.484 436.103 284.195 436.755 284.152C443.039 284.152 448.354 275.139 448.354 264.464C448.397 263.812 448.687 263.2 449.164 262.753C449.641 262.306 450.27 262.057 450.924 262.057C451.578 262.057 452.207 262.306 452.685 262.753C453.162 263.2 453.451 263.812 453.494 264.464C453.494 278.386 446.142 289.291 436.755 289.291Z" fill="black"/> </g> <path d="M218.252 267.094H468.262C471.615 267.162 474.827 268.45 477.297 270.717C479.767 272.984 481.324 276.075 481.677 279.409L495.522 435.492C495.69 437.058 495.524 438.642 495.035 440.139C494.545 441.637 493.743 443.013 492.682 444.177C491.621 445.341 490.325 446.266 488.879 446.892C487.434 447.518 485.872 447.83 484.297 447.807H234.275C230.925 447.735 227.715 446.445 225.246 444.179C222.777 441.912 221.218 438.824 220.86 435.492L207.027 279.409C206.857 277.842 207.022 276.258 207.511 274.76C207.999 273.262 208.801 271.885 209.863 270.72C210.924 269.556 212.221 268.63 213.667 268.005C215.114 267.38 216.677 267.07 218.252 267.094Z" fill="#2951A7"/> <path opacity="0.4" d="M218.252 267.094H468.262C471.615 267.162 474.827 268.45 477.297 270.717C479.767 272.984 481.324 276.075 481.677 279.409L495.522 435.492C495.69 437.058 495.524 438.642 495.035 440.139C494.545 441.637 493.743 443.013 492.682 444.177C491.621 445.341 490.325 446.266 488.879 446.892C487.434 447.518 485.872 447.83 484.297 447.807H234.275C230.925 447.735 227.715 446.445 225.246 444.179C222.777 441.912 221.218 438.824 220.86 435.492L207.027 279.409C206.857 277.842 207.022 276.258 207.511 274.76C207.999 273.262 208.801 271.885 209.863 270.72C210.924 269.556 212.221 268.63 213.667 268.005C215.114 267.38 216.677 267.07 218.252 267.094Z" fill="#FAFAFA"/> <path d="M466.182 267.094H216.161C212.854 267.134 209.685 268.427 207.295 270.713C204.905 272.999 203.472 276.107 203.285 279.409L196.242 435.492C196.158 437.082 196.4 438.673 196.952 440.166C197.505 441.659 198.356 443.024 199.454 444.177C200.553 445.33 201.875 446.247 203.34 446.871C204.804 447.495 206.381 447.813 207.974 447.807H458.017C461.324 447.767 464.493 446.474 466.883 444.188C469.273 441.902 470.706 438.794 470.893 435.492L477.947 279.409C478.029 277.816 477.785 276.224 477.231 274.729C476.676 273.234 475.821 271.868 474.72 270.715C473.618 269.562 472.293 268.646 470.825 268.024C469.357 267.401 467.777 267.085 466.182 267.094Z" fill="#2951A7"/> <path opacity="0.2" d="M466.182 267.094H216.161C212.854 267.134 209.685 268.427 207.295 270.713C204.905 272.999 203.472 276.107 203.285 279.409L196.242 435.492C196.158 437.082 196.4 438.673 196.952 440.166C197.505 441.659 198.356 443.024 199.454 444.177C200.553 445.33 201.875 446.247 203.34 446.871C204.804 447.495 206.381 447.813 207.974 447.807H458.017C461.324 447.767 464.493 446.474 466.883 444.188C469.273 441.902 470.706 438.794 470.893 435.492L477.947 279.409C478.029 277.816 477.785 276.224 477.231 274.729C476.676 273.234 475.821 271.868 474.72 270.715C473.618 269.562 472.293 268.646 470.825 268.024C469.357 267.401 467.777 267.085 466.182 267.094Z" fill="#FAFAFA"/> <path d="M220.75 406.56L226.572 277.659C226.642 276.395 227.19 275.204 228.106 274.329C229.022 273.455 230.236 272.961 231.502 272.949H450.313C450.923 272.945 451.528 273.066 452.089 273.304C452.651 273.542 453.158 273.893 453.58 274.334C454.001 274.775 454.328 275.297 454.54 275.869C454.753 276.441 454.846 277.05 454.814 277.659L448.982 406.56C448.912 407.824 448.364 409.015 447.448 409.89C446.532 410.765 445.318 411.258 444.052 411.27H225.251C224.641 411.274 224.037 411.153 223.475 410.915C222.914 410.677 222.407 410.327 221.985 409.886C221.564 409.445 221.237 408.922 221.024 408.35C220.812 407.778 220.719 407.169 220.75 406.56Z" fill="#2951A7"/> <path opacity="0.1" d="M220.75 406.56L226.572 277.659C226.642 276.395 227.19 275.204 228.106 274.329C229.022 273.455 230.236 272.961 231.502 272.949H450.313C450.923 272.945 451.528 273.066 452.089 273.304C452.651 273.542 453.158 273.893 453.58 274.334C454.001 274.775 454.328 275.297 454.54 275.869C454.753 276.441 454.846 277.05 454.814 277.659L448.982 406.56C448.912 407.824 448.364 409.015 447.448 409.89C446.532 410.765 445.318 411.258 444.052 411.27H225.251C224.641 411.274 224.037 411.153 223.475 410.915C222.914 410.677 222.407 410.327 221.985 409.886C221.564 409.445 221.237 408.922 221.024 408.35C220.812 407.778 220.719 407.169 220.75 406.56Z" fill="#FAFAFA"/> <path opacity="0.1" d="M214.577 417.081L220.684 281.72C220.754 280.392 221.329 279.142 222.29 278.223C223.251 277.305 224.527 276.788 225.857 276.779H455.64C456.28 276.773 456.915 276.899 457.505 277.148C458.094 277.398 458.627 277.765 459.069 278.228C459.512 278.691 459.854 279.24 460.077 279.84C460.299 280.441 460.395 281.081 460.361 281.72L454.242 417.081C454.172 418.408 453.6 419.658 452.641 420.578C451.682 421.498 450.409 422.018 449.081 422.033H219.276C218.636 422.037 218.002 421.91 217.413 421.659C216.824 421.408 216.293 421.04 215.853 420.575C215.412 420.111 215.072 419.561 214.852 418.96C214.633 418.359 214.539 417.72 214.577 417.081Z" fill="black"/> <path d="M208.898 427.998L215.27 286.804C215.355 285.424 215.958 284.126 216.957 283.169C217.956 282.213 219.279 281.668 220.662 281.643H460.361C461.03 281.637 461.692 281.769 462.308 282.029C462.924 282.29 463.48 282.674 463.942 283.157C464.404 283.641 464.762 284.214 464.994 284.841C465.226 285.468 465.327 286.136 465.291 286.804L458.886 427.998C458.801 429.378 458.198 430.676 457.199 431.632C456.2 432.589 454.877 433.134 453.494 433.159H213.828C213.159 433.166 212.496 433.036 211.879 432.776C211.262 432.516 210.705 432.132 210.243 431.648C209.781 431.164 209.423 430.59 209.192 429.963C208.96 429.335 208.86 428.666 208.898 427.998Z" fill="#FAFAFA"/> <path d="M436.722 290.106C436.271 290.107 435.825 290.015 435.411 289.837C434.997 289.659 434.624 289.398 434.315 289.07C434.006 288.742 433.767 288.354 433.613 287.931C433.459 287.507 433.394 287.056 433.421 286.606C433.463 285.723 433.841 284.89 434.477 284.276C435.113 283.662 435.959 283.315 436.843 283.305C437.294 283.304 437.74 283.395 438.154 283.574C438.568 283.752 438.941 284.013 439.251 284.341C439.56 284.669 439.799 285.056 439.953 285.48C440.106 285.904 440.172 286.354 440.145 286.804C440.103 287.687 439.725 288.521 439.089 289.134C438.453 289.748 437.606 290.096 436.722 290.106Z" fill="#2951A7"/> <path d="M397.886 290.106C397.435 290.107 396.989 290.015 396.575 289.837C396.161 289.659 395.788 289.398 395.478 289.07C395.169 288.742 394.93 288.354 394.776 287.931C394.623 287.507 394.557 287.056 394.584 286.606C394.626 285.723 395.004 284.89 395.64 284.276C396.276 283.662 397.123 283.315 398.007 283.305C398.458 283.304 398.904 283.395 399.318 283.574C399.732 283.752 400.105 284.013 400.414 284.341C400.724 284.669 400.963 285.056 401.116 285.48C401.27 285.904 401.335 286.354 401.308 286.804C401.269 287.688 400.892 288.523 400.255 289.137C399.619 289.752 398.771 290.098 397.886 290.106Z" fill="#2951A7"/> <path d="M359.049 290.106C358.599 290.107 358.153 290.015 357.738 289.837C357.324 289.659 356.951 289.398 356.642 289.07C356.333 288.742 356.094 288.354 355.94 287.931C355.786 287.507 355.721 287.056 355.748 286.606C355.793 285.724 356.171 284.892 356.807 284.279C357.442 283.666 358.287 283.318 359.17 283.305C359.621 283.304 360.067 283.395 360.481 283.574C360.895 283.752 361.269 284.013 361.578 284.341C361.887 284.669 362.126 285.056 362.28 285.48C362.434 285.904 362.499 286.354 362.472 286.804C362.433 287.688 362.056 288.523 361.419 289.137C360.782 289.752 359.934 290.098 359.049 290.106Z" fill="#2951A7"/> <path d="M320.224 290.106C319.773 290.107 319.327 290.015 318.913 289.837C318.499 289.659 318.126 289.398 317.817 289.07C317.507 288.742 317.268 288.354 317.115 287.931C316.961 287.507 316.895 287.056 316.923 286.606C316.97 285.723 317.351 284.891 317.988 284.278C318.626 283.665 319.472 283.317 320.356 283.305C320.807 283.304 321.253 283.395 321.667 283.574C322.081 283.752 322.454 284.013 322.763 284.341C323.073 284.669 323.312 285.056 323.465 285.48C323.619 285.904 323.685 286.354 323.658 286.804C323.618 287.69 323.24 288.527 322.6 289.141C321.961 289.756 321.111 290.101 320.224 290.106Z" fill="#2951A7"/> <path d="M281.388 290.106C280.937 290.107 280.491 290.015 280.077 289.837C279.663 289.659 279.289 289.398 278.98 289.07C278.671 288.742 278.432 288.354 278.278 287.931C278.124 287.507 278.059 287.056 278.086 286.606C278.128 285.723 278.506 284.89 279.142 284.276C279.778 283.662 280.625 283.315 281.509 283.305C281.959 283.304 282.405 283.395 282.819 283.574C283.234 283.752 283.607 284.013 283.916 284.341C284.225 284.669 284.464 285.056 284.618 285.48C284.772 285.904 284.837 286.354 284.81 286.804C284.768 287.687 284.39 288.521 283.754 289.134C283.118 289.748 282.271 290.096 281.388 290.106Z" fill="#2951A7"/> <path d="M242.551 290.106C242.1 290.107 241.654 290.015 241.24 289.837C240.826 289.659 240.453 289.398 240.144 289.07C239.834 288.742 239.595 288.354 239.442 287.931C239.288 287.507 239.223 287.056 239.25 286.606C239.292 285.723 239.669 284.89 240.306 284.276C240.942 283.662 241.788 283.315 242.672 283.305C243.123 283.304 243.569 283.395 243.983 283.574C244.397 283.752 244.77 284.013 245.08 284.341C245.389 284.669 245.628 285.056 245.782 285.48C245.935 285.904 246.001 286.354 245.974 286.804C245.934 287.688 245.557 288.523 244.921 289.137C244.284 289.752 243.436 290.098 242.551 290.106Z" fill="#2951A7"/> <g opacity="0.1"> <path opacity="0.1" d="M436.722 290.106C436.271 290.107 435.825 290.015 435.411 289.837C434.997 289.659 434.624 289.398 434.315 289.07C434.006 288.742 433.767 288.354 433.613 287.931C433.459 287.507 433.394 287.056 433.421 286.606C433.463 285.723 433.841 284.89 434.477 284.276C435.113 283.662 435.959 283.315 436.843 283.305C437.294 283.304 437.74 283.395 438.154 283.574C438.568 283.752 438.941 284.013 439.251 284.341C439.56 284.669 439.799 285.056 439.953 285.48C440.106 285.904 440.172 286.354 440.145 286.804C440.103 287.687 439.725 288.521 439.089 289.134C438.453 289.748 437.606 290.096 436.722 290.106Z" fill="#FAFAFA"/> <path opacity="0.1" d="M397.886 290.106C397.435 290.107 396.989 290.015 396.575 289.837C396.161 289.659 395.788 289.398 395.478 289.07C395.169 288.742 394.93 288.354 394.776 287.931C394.623 287.507 394.557 287.056 394.584 286.606C394.626 285.723 395.004 284.89 395.64 284.276C396.276 283.662 397.123 283.315 398.007 283.305C398.458 283.304 398.904 283.395 399.318 283.574C399.732 283.752 400.105 284.013 400.414 284.341C400.724 284.669 400.963 285.056 401.116 285.48C401.27 285.904 401.335 286.354 401.308 286.804C401.269 287.688 400.892 288.523 400.255 289.137C399.619 289.752 398.771 290.098 397.886 290.106Z" fill="#FAFAFA"/> <path opacity="0.1" d="M359.049 290.106C358.599 290.107 358.153 290.015 357.739 289.837C357.324 289.659 356.951 289.398 356.642 289.07C356.333 288.742 356.094 288.354 355.94 287.931C355.786 287.507 355.721 287.056 355.748 286.606C355.793 285.724 356.171 284.892 356.807 284.279C357.442 283.666 358.287 283.318 359.17 283.305C359.621 283.304 360.067 283.395 360.481 283.574C360.895 283.752 361.269 284.013 361.578 284.341C361.887 284.669 362.126 285.056 362.28 285.48C362.434 285.904 362.499 286.354 362.472 286.804C362.433 287.688 362.056 288.523 361.419 289.137C360.782 289.752 359.934 290.098 359.049 290.106Z" fill="#FAFAFA"/> <path opacity="0.1" d="M320.224 290.106C319.773 290.107 319.327 290.015 318.913 289.837C318.499 289.659 318.126 289.398 317.817 289.07C317.507 288.742 317.268 288.354 317.115 287.931C316.961 287.507 316.895 287.056 316.923 286.606C316.97 285.723 317.351 284.891 317.988 284.278C318.626 283.665 319.472 283.317 320.356 283.305C320.807 283.304 321.253 283.395 321.667 283.574C322.081 283.752 322.454 284.013 322.763 284.341C323.073 284.669 323.312 285.056 323.465 285.48C323.619 285.904 323.685 286.354 323.658 286.804C323.618 287.69 323.24 288.527 322.6 289.141C321.961 289.756 321.111 290.101 320.224 290.106Z" fill="#FAFAFA"/> <path opacity="0.1" d="M281.388 290.106C280.937 290.107 280.491 290.015 280.077 289.837C279.663 289.659 279.289 289.398 278.98 289.07C278.671 288.742 278.432 288.354 278.278 287.931C278.124 287.507 278.059 287.056 278.086 286.606C278.128 285.723 278.506 284.89 279.142 284.276C279.778 283.662 280.625 283.315 281.509 283.305C281.959 283.304 282.405 283.395 282.819 283.574C283.234 283.752 283.607 284.013 283.916 284.341C284.225 284.669 284.464 285.056 284.618 285.48C284.772 285.904 284.837 286.354 284.81 286.804C284.768 287.687 284.39 288.521 283.754 289.134C283.118 289.748 282.271 290.096 281.388 290.106Z" fill="#FAFAFA"/> <path opacity="0.1" d="M242.551 290.106C242.1 290.107 241.654 290.015 241.24 289.837C240.826 289.659 240.453 289.398 240.144 289.07C239.834 288.742 239.595 288.354 239.442 287.931C239.288 287.507 239.223 287.056 239.25 286.606C239.292 285.723 239.669 284.89 240.306 284.276C240.942 283.662 241.788 283.315 242.672 283.305C243.123 283.304 243.569 283.395 243.983 283.574C244.397 283.752 244.77 284.013 245.08 284.341C245.389 284.669 245.628 285.056 245.782 285.48C245.935 285.904 246.001 286.354 245.974 286.804C245.934 287.688 245.557 288.523 244.921 289.137C244.284 289.752 243.436 290.098 242.551 290.106Z" fill="#FAFAFA"/> </g> <path d="M252.257 302.409H232.724C232.44 302.412 232.16 302.355 231.9 302.243C231.639 302.132 231.405 301.967 231.212 301.76C231.018 301.554 230.87 301.309 230.776 301.042C230.682 300.774 230.644 300.491 230.666 300.208C230.688 299.631 230.926 299.084 231.335 298.676C231.743 298.268 232.29 298.029 232.867 298.007H252.401C252.684 298.005 252.964 298.061 253.225 298.173C253.485 298.285 253.719 298.449 253.912 298.656C254.106 298.863 254.254 299.108 254.348 299.375C254.442 299.642 254.48 299.926 254.458 300.208C254.437 300.785 254.198 301.332 253.79 301.74C253.381 302.149 252.834 302.387 252.257 302.409Z" fill="#2951A7"/> <path d="M291.094 302.409H271.56C271.277 302.412 270.996 302.355 270.736 302.243C270.476 302.132 270.242 301.967 270.048 301.76C269.855 301.554 269.706 301.309 269.612 301.042C269.518 300.774 269.481 300.491 269.502 300.208C269.525 299.622 269.771 299.067 270.191 298.658C270.611 298.248 271.172 298.015 271.758 298.007H291.281C291.565 298.005 291.846 298.062 292.106 298.173C292.367 298.285 292.602 298.449 292.796 298.656C292.991 298.862 293.14 299.107 293.235 299.374C293.331 299.641 293.37 299.925 293.35 300.208C293.327 300.794 293.081 301.349 292.661 301.759C292.241 302.168 291.68 302.401 291.094 302.409Z" fill="#2951A7"/> <path d="M329.93 302.409H310.397C310.113 302.411 309.832 302.355 309.571 302.243C309.31 302.132 309.075 301.968 308.881 301.761C308.687 301.554 308.537 301.31 308.442 301.042C308.347 300.775 308.308 300.491 308.328 300.208C308.35 299.622 308.597 299.067 309.016 298.658C309.436 298.248 309.997 298.015 310.584 298.007H330.128C330.412 298.005 330.692 298.061 330.952 298.173C331.213 298.285 331.447 298.449 331.64 298.656C331.834 298.863 331.982 299.108 332.076 299.375C332.17 299.642 332.208 299.926 332.186 300.208C332.166 300.795 331.921 301.352 331.5 301.762C331.08 302.172 330.518 302.404 329.93 302.409Z" fill="#2951A7"/> <path d="M368.756 302.409H349.222C348.939 302.412 348.658 302.355 348.398 302.243C348.138 302.132 347.903 301.967 347.71 301.76C347.517 301.554 347.368 301.309 347.274 301.042C347.18 300.774 347.143 300.491 347.164 300.208C347.186 299.631 347.425 299.084 347.833 298.676C348.241 298.268 348.788 298.029 349.365 298.007H368.899C369.182 298.005 369.463 298.061 369.723 298.173C369.983 298.285 370.217 298.449 370.411 298.656C370.604 298.863 370.753 299.108 370.847 299.375C370.941 299.642 370.978 299.926 370.957 300.208C370.935 300.785 370.696 301.332 370.288 301.74C369.88 302.149 369.333 302.387 368.756 302.409Z" fill="#2951A7"/> <path d="M407.592 302.409H388.058C387.775 302.412 387.495 302.355 387.234 302.243C386.974 302.132 386.74 301.967 386.546 301.76C386.353 301.554 386.205 301.309 386.111 301.042C386.017 300.774 385.979 300.491 386.001 300.208C386.023 299.622 386.27 299.067 386.689 298.658C387.109 298.248 387.67 298.015 388.257 298.007H407.79C408.073 298.005 408.354 298.061 408.614 298.173C408.875 298.285 409.109 298.449 409.302 298.656C409.496 298.863 409.644 299.108 409.738 299.375C409.832 299.642 409.87 299.926 409.848 300.208C409.826 300.794 409.579 301.349 409.159 301.759C408.74 302.168 408.179 302.401 407.592 302.409Z" fill="#2951A7"/> <path d="M446.429 302.409H426.895C426.612 302.412 426.331 302.355 426.071 302.243C425.81 302.132 425.576 301.967 425.383 301.76C425.189 301.554 425.041 301.309 424.947 301.042C424.853 300.774 424.816 300.491 424.837 300.208C424.859 299.622 425.106 299.067 425.526 298.658C425.946 298.248 426.506 298.015 427.093 298.007H446.616C446.899 298.005 447.18 298.062 447.441 298.173C447.702 298.285 447.937 298.449 448.131 298.656C448.325 298.862 448.475 299.107 448.57 299.374C448.665 299.641 448.704 299.925 448.685 300.208C448.662 300.794 448.416 301.349 447.996 301.759C447.576 302.168 447.015 302.401 446.429 302.409Z" fill="#2951A7"/> <g opacity="0.3"> <path opacity="0.3" d="M252.257 302.409H232.724C232.44 302.412 232.16 302.355 231.9 302.243C231.639 302.132 231.405 301.967 231.212 301.76C231.018 301.554 230.87 301.309 230.776 301.042C230.682 300.774 230.644 300.491 230.666 300.208C230.688 299.631 230.926 299.084 231.335 298.676C231.743 298.268 232.29 298.029 232.867 298.007H252.401C252.684 298.005 252.964 298.061 253.225 298.173C253.485 298.285 253.719 298.449 253.912 298.656C254.106 298.863 254.254 299.108 254.348 299.375C254.442 299.642 254.48 299.926 254.458 300.208C254.437 300.785 254.198 301.332 253.79 301.74C253.381 302.149 252.834 302.387 252.257 302.409Z" fill="black"/> <path opacity="0.3" d="M291.094 302.409H271.56C271.277 302.412 270.996 302.355 270.736 302.243C270.476 302.132 270.242 301.967 270.048 301.76C269.855 301.554 269.706 301.309 269.612 301.042C269.518 300.774 269.481 300.491 269.502 300.208C269.525 299.622 269.771 299.067 270.191 298.658C270.611 298.248 271.172 298.015 271.758 298.007H291.281C291.565 298.005 291.846 298.062 292.106 298.173C292.367 298.285 292.602 298.449 292.796 298.656C292.991 298.862 293.14 299.107 293.235 299.374C293.331 299.641 293.37 299.925 293.35 300.208C293.327 300.794 293.081 301.349 292.661 301.759C292.241 302.168 291.68 302.401 291.094 302.409Z" fill="black"/> <path opacity="0.3" d="M329.93 302.409H310.397C310.113 302.411 309.832 302.355 309.571 302.243C309.31 302.132 309.075 301.968 308.881 301.761C308.687 301.554 308.537 301.31 308.442 301.042C308.347 300.775 308.308 300.491 308.328 300.208C308.35 299.622 308.597 299.067 309.016 298.658C309.436 298.248 309.997 298.015 310.584 298.007H330.128C330.412 298.005 330.692 298.061 330.952 298.173C331.213 298.285 331.447 298.449 331.64 298.656C331.834 298.863 331.982 299.108 332.076 299.375C332.17 299.642 332.208 299.926 332.186 300.208C332.166 300.795 331.921 301.352 331.5 301.762C331.08 302.172 330.518 302.404 329.93 302.409Z" fill="black"/> <path opacity="0.3" d="M368.756 302.409H349.222C348.939 302.412 348.658 302.355 348.398 302.243C348.138 302.132 347.903 301.967 347.71 301.76C347.517 301.554 347.368 301.309 347.274 301.042C347.18 300.774 347.143 300.491 347.164 300.208C347.186 299.631 347.425 299.084 347.833 298.676C348.241 298.268 348.788 298.029 349.365 298.007H368.899C369.182 298.005 369.463 298.061 369.723 298.173C369.983 298.285 370.217 298.449 370.411 298.656C370.604 298.863 370.753 299.108 370.847 299.375C370.941 299.642 370.978 299.926 370.957 300.208C370.935 300.785 370.696 301.332 370.288 301.74C369.88 302.149 369.333 302.387 368.756 302.409Z" fill="black"/> <path opacity="0.3" d="M407.592 302.409H388.058C387.775 302.412 387.495 302.355 387.234 302.243C386.974 302.132 386.74 301.967 386.546 301.76C386.353 301.554 386.205 301.309 386.111 301.042C386.017 300.774 385.979 300.491 386.001 300.208C386.023 299.622 386.27 299.067 386.689 298.658C387.109 298.248 387.67 298.015 388.257 298.007H407.79C408.073 298.005 408.354 298.061 408.614 298.173C408.875 298.285 409.109 298.449 409.302 298.656C409.496 298.863 409.644 299.108 409.738 299.375C409.832 299.642 409.87 299.926 409.848 300.208C409.826 300.794 409.579 301.349 409.159 301.759C408.74 302.168 408.179 302.401 407.592 302.409Z" fill="black"/> <path opacity="0.3" d="M446.429 302.409H426.895C426.612 302.412 426.331 302.355 426.071 302.243C425.81 302.132 425.576 301.967 425.383 301.76C425.189 301.554 425.041 301.309 424.947 301.042C424.853 300.774 424.816 300.491 424.837 300.208C424.859 299.622 425.106 299.067 425.526 298.658C425.946 298.248 426.506 298.015 427.093 298.007H446.616C446.899 298.005 447.18 298.062 447.441 298.173C447.702 298.285 447.937 298.449 448.131 298.656C448.325 298.862 448.475 299.107 448.57 299.374C448.665 299.641 448.704 299.925 448.685 300.208C448.662 300.794 448.416 301.349 447.996 301.759C447.576 302.168 447.015 302.401 446.429 302.409Z" fill="black"/> </g> <path d="M253.336 343.975H227.893C227.335 343.977 226.782 343.866 226.268 343.647C225.755 343.428 225.291 343.107 224.906 342.704C224.521 342.3 224.222 341.822 224.028 341.299C223.834 340.776 223.748 340.218 223.777 339.661L224.877 314.218C224.944 313.061 225.447 311.973 226.284 311.172C227.121 310.372 228.231 309.918 229.389 309.904H254.833C255.391 309.901 255.943 310.013 256.457 310.232C256.97 310.45 257.434 310.771 257.819 311.175C258.204 311.579 258.503 312.057 258.697 312.58C258.891 313.103 258.977 313.66 258.948 314.218L257.848 339.661C257.779 340.817 257.275 341.903 256.438 342.703C255.602 343.503 254.494 343.958 253.336 343.975Z" fill="#2951A7"/> <path d="M292.172 343.975H266.729C266.17 343.979 265.617 343.868 265.103 343.65C264.589 343.432 264.125 343.111 263.739 342.707C263.354 342.303 263.055 341.824 262.861 341.301C262.667 340.777 262.583 340.219 262.613 339.661L263.714 314.218C263.78 313.061 264.283 311.973 265.12 311.172C265.958 310.372 267.067 309.918 268.226 309.904H293.702C294.261 309.902 294.814 310.013 295.328 310.232C295.842 310.45 296.306 310.771 296.692 311.174C297.078 311.578 297.378 312.056 297.573 312.579C297.769 313.102 297.856 313.66 297.829 314.218L296.673 339.661C296.609 340.817 296.109 341.905 295.273 342.705C294.438 343.506 293.33 343.96 292.172 343.975Z" fill="#2951A7"/> <path d="M330.998 343.975H305.565C305.007 343.977 304.454 343.866 303.94 343.647C303.426 343.429 302.962 343.108 302.576 342.704C302.189 342.301 301.89 341.823 301.694 341.3C301.499 340.776 301.412 340.219 301.439 339.661L302.539 314.218C302.606 313.061 303.108 311.973 303.946 311.172C304.783 310.372 305.893 309.918 307.051 309.904H332.484C333.042 309.9 333.595 310.01 334.11 310.228C334.624 310.446 335.088 310.767 335.473 311.171C335.859 311.575 336.158 312.054 336.351 312.578C336.545 313.102 336.629 313.66 336.599 314.218L335.499 339.661C335.432 340.816 334.931 341.902 334.096 342.703C333.261 343.503 332.154 343.957 330.998 343.975Z" fill="#2951A7"/> <path d="M369.834 343.975H344.435C343.876 343.979 343.322 343.868 342.807 343.65C342.293 343.432 341.828 343.112 341.441 342.708C341.055 342.304 340.755 341.825 340.56 341.301C340.365 340.777 340.279 340.219 340.308 339.661L341.408 314.218C341.473 313.062 341.973 311.974 342.808 311.173C343.644 310.372 344.752 309.919 345.909 309.904H371.353C371.911 309.901 372.464 310.013 372.977 310.232C373.49 310.45 373.954 310.771 374.339 311.175C374.724 311.579 375.023 312.057 375.217 312.58C375.412 313.103 375.497 313.66 375.469 314.218L374.368 339.661C374.301 340.821 373.795 341.913 372.953 342.714C372.112 343.515 370.996 343.966 369.834 343.975Z" fill="#2951A7"/> <path d="M408.671 343.975H383.227C382.669 343.977 382.117 343.866 381.603 343.647C381.09 343.428 380.626 343.107 380.241 342.704C379.856 342.3 379.557 341.822 379.363 341.299C379.168 340.776 379.083 340.218 379.111 339.661L380.212 314.218C380.279 313.061 380.781 311.973 381.619 311.172C382.456 310.372 383.566 309.918 384.724 309.904H410.156C410.715 309.9 411.269 310.01 411.784 310.228C412.299 310.446 412.763 310.767 413.15 311.171C413.536 311.575 413.836 312.053 414.031 312.577C414.226 313.101 414.312 313.659 414.283 314.218L413.183 339.661C413.113 340.817 412.61 341.903 411.773 342.703C410.936 343.503 409.828 343.958 408.671 343.975Z" fill="#2951A7"/> <path d="M447.496 343.975H422.064C421.505 343.979 420.952 343.868 420.438 343.65C419.923 343.432 419.459 343.111 419.074 342.707C418.688 342.303 418.389 341.824 418.196 341.301C418.002 340.777 417.918 340.219 417.948 339.661L419.048 314.218C419.115 313.061 419.618 311.973 420.455 311.172C421.292 310.372 422.402 309.918 423.56 309.904H448.993C449.551 309.902 450.104 310.013 450.618 310.232C451.132 310.45 451.597 310.771 451.983 311.174C452.369 311.578 452.669 312.056 452.864 312.579C453.06 313.102 453.147 313.66 453.12 314.218L451.964 339.661C451.9 340.811 451.405 341.894 450.576 342.694C449.748 343.494 448.648 343.952 447.496 343.975Z" fill="#2951A7"/> <g opacity="0.8"> <path opacity="0.8" d="M253.336 343.975H227.893C227.335 343.977 226.782 343.866 226.268 343.647C225.755 343.428 225.291 343.107 224.906 342.704C224.521 342.3 224.222 341.822 224.028 341.299C223.834 340.776 223.748 340.218 223.777 339.661L224.877 314.218C224.944 313.061 225.447 311.973 226.284 311.172C227.121 310.372 228.231 309.918 229.389 309.904H254.833C255.391 309.901 255.943 310.013 256.457 310.232C256.97 310.45 257.434 310.771 257.819 311.175C258.204 311.579 258.503 312.057 258.697 312.58C258.891 313.103 258.977 313.66 258.948 314.218L257.848 339.661C257.779 340.817 257.275 341.903 256.438 342.703C255.602 343.503 254.494 343.958 253.336 343.975Z" fill="#FAFAFA"/> <path opacity="0.8" d="M292.172 343.975H266.729C266.17 343.979 265.617 343.868 265.103 343.65C264.589 343.432 264.125 343.111 263.739 342.707C263.354 342.303 263.055 341.824 262.861 341.3C262.667 340.777 262.583 340.219 262.613 339.661L263.714 314.218C263.78 313.061 264.283 311.973 265.12 311.172C265.958 310.372 267.067 309.918 268.226 309.904H293.702C294.261 309.902 294.814 310.013 295.328 310.231C295.842 310.45 296.306 310.771 296.692 311.174C297.078 311.578 297.378 312.056 297.573 312.579C297.769 313.102 297.856 313.66 297.829 314.218L296.673 339.661C296.609 340.817 296.109 341.905 295.273 342.705C294.438 343.506 293.33 343.96 292.172 343.975Z" fill="#FAFAFA"/> <path opacity="0.8" d="M330.998 343.975H305.565C305.007 343.977 304.454 343.865 303.94 343.647C303.426 343.429 302.962 343.108 302.576 342.704C302.189 342.301 301.89 341.823 301.694 341.3C301.499 340.776 301.412 340.219 301.439 339.661L302.539 314.218C302.606 313.061 303.108 311.973 303.946 311.172C304.783 310.372 305.893 309.918 307.051 309.904H332.484C333.042 309.9 333.595 310.01 334.11 310.228C334.624 310.446 335.088 310.767 335.473 311.171C335.859 311.575 336.158 312.054 336.351 312.578C336.545 313.102 336.629 313.66 336.599 314.218L335.499 339.661C335.432 340.816 334.931 341.902 334.096 342.703C333.261 343.503 332.154 343.957 330.998 343.975Z" fill="#FAFAFA"/> <path opacity="0.8" d="M369.834 343.975H344.435C343.876 343.979 343.322 343.868 342.807 343.65C342.293 343.432 341.828 343.112 341.441 342.708C341.055 342.304 340.755 341.825 340.56 341.301C340.365 340.777 340.279 340.219 340.308 339.661L341.408 314.218C341.473 313.062 341.973 311.974 342.808 311.173C343.644 310.372 344.752 309.919 345.909 309.904H371.353C371.911 309.901 372.464 310.013 372.977 310.232C373.49 310.45 373.954 310.771 374.339 311.175C374.724 311.579 375.023 312.057 375.217 312.58C375.412 313.103 375.497 313.66 375.469 314.218L374.368 339.661C374.301 340.821 373.795 341.913 372.953 342.714C372.112 343.515 370.996 343.966 369.834 343.975Z" fill="#FAFAFA"/> <path opacity="0.8" d="M408.671 343.975H383.227C382.669 343.977 382.117 343.866 381.603 343.647C381.09 343.428 380.626 343.107 380.241 342.704C379.856 342.3 379.557 341.822 379.363 341.299C379.168 340.776 379.083 340.218 379.111 339.661L380.212 314.218C380.279 313.061 380.781 311.973 381.619 311.172C382.456 310.372 383.566 309.918 384.724 309.904H410.156C410.715 309.9 411.269 310.01 411.784 310.228C412.299 310.446 412.763 310.767 413.15 311.171C413.536 311.575 413.836 312.053 414.031 312.577C414.226 313.101 414.312 313.659 414.283 314.218L413.183 339.661C413.113 340.817 412.61 341.903 411.773 342.703C410.936 343.503 409.828 343.958 408.671 343.975Z" fill="#FAFAFA"/> <path opacity="0.8" d="M447.496 343.975H422.064C421.505 343.979 420.952 343.868 420.438 343.65C419.923 343.432 419.459 343.111 419.074 342.707C418.688 342.303 418.389 341.824 418.196 341.3C418.002 340.777 417.918 340.219 417.948 339.661L419.048 314.218C419.115 313.061 419.618 311.973 420.455 311.172C421.292 310.372 422.402 309.918 423.56 309.904H448.993C449.551 309.902 450.104 310.013 450.618 310.231C451.132 310.45 451.597 310.771 451.983 311.174C452.369 311.578 452.669 312.056 452.864 312.579C453.06 313.102 453.147 313.66 453.12 314.218L451.964 339.661C451.9 340.811 451.405 341.894 450.576 342.694C449.748 343.494 448.648 343.952 447.496 343.975Z" fill="#FAFAFA"/> </g> <path d="M251.553 383.45H226.11C225.552 383.452 224.999 383.34 224.486 383.122C223.972 382.903 223.509 382.582 223.123 382.178C222.738 381.775 222.439 381.297 222.245 380.773C222.051 380.25 221.965 379.693 221.994 379.136L223.094 353.692C223.164 352.537 223.667 351.45 224.504 350.65C225.341 349.85 226.449 349.396 227.606 349.378H253.094C253.652 349.376 254.205 349.488 254.718 349.706C255.231 349.925 255.695 350.246 256.08 350.65C256.465 351.053 256.764 351.531 256.958 352.055C257.153 352.578 257.238 353.135 257.21 353.692L256.109 379.136C256.039 380.299 255.53 381.392 254.684 382.193C253.837 382.994 252.718 383.443 251.553 383.45Z" fill="#2951A7"/> <path d="M290.39 383.45H264.946C264.388 383.452 263.835 383.34 263.322 383.122C262.809 382.903 262.345 382.582 261.96 382.178C261.575 381.775 261.276 381.297 261.082 380.773C260.887 380.25 260.802 379.693 260.83 379.136L261.931 353.692C261.998 352.536 262.5 351.448 263.338 350.647C264.175 349.847 265.285 349.393 266.443 349.378H291.875C292.439 349.374 292.997 349.486 293.515 349.707C294.034 349.927 294.501 350.252 294.889 350.66C295.277 351.069 295.577 351.552 295.77 352.082C295.964 352.611 296.046 353.174 296.013 353.736L294.913 379.136C294.848 380.295 294.345 381.386 293.505 382.188C292.664 382.989 291.551 383.44 290.39 383.45Z" fill="#2951A7"/> <path d="M329.215 383.45H303.783C303.224 383.453 302.671 383.343 302.157 383.125C301.642 382.907 301.178 382.586 300.793 382.182C300.407 381.778 300.108 381.299 299.915 380.775C299.721 380.251 299.637 379.693 299.667 379.136L300.767 353.692C300.834 352.536 301.337 351.448 302.174 350.647C303.011 349.847 304.121 349.393 305.279 349.378H330.712C331.27 349.375 331.824 349.485 332.338 349.703C332.852 349.921 333.316 350.242 333.702 350.646C334.087 351.05 334.386 351.529 334.58 352.053C334.773 352.577 334.858 353.135 334.828 353.692L333.727 379.136C333.66 380.292 333.158 381.38 332.32 382.181C331.483 382.982 330.373 383.435 329.215 383.45Z" fill="#2951A7"/> <path d="M368.051 383.45H342.619C342.061 383.452 341.507 383.34 340.993 383.122C340.479 382.903 340.015 382.583 339.629 382.179C339.243 381.775 338.943 381.297 338.748 380.774C338.552 380.251 338.465 379.694 338.492 379.136L339.593 353.692C339.657 352.537 340.157 351.449 340.993 350.648C341.828 349.847 342.936 349.393 344.094 349.378H369.537C370.104 349.368 370.666 349.475 371.189 349.693C371.712 349.911 372.185 350.235 372.577 350.644C372.968 351.054 373.271 351.54 373.466 352.072C373.661 352.604 373.743 353.171 373.708 353.736L372.608 379.18C372.53 380.336 372.016 381.42 371.17 382.212C370.325 383.004 369.21 383.447 368.051 383.45Z" fill="#2951A7"/> <path d="M406.888 383.45H381.444C380.886 383.452 380.334 383.34 379.82 383.122C379.307 382.903 378.843 382.582 378.458 382.178C378.073 381.775 377.774 381.297 377.58 380.773C377.386 380.25 377.3 379.693 377.329 379.136L378.429 353.692C378.488 352.527 378.988 351.428 379.828 350.618C380.668 349.809 381.785 349.35 382.952 349.334H408.396C408.954 349.332 409.506 349.444 410.02 349.662C410.533 349.881 410.997 350.202 411.382 350.606C411.767 351.009 412.066 351.487 412.26 352.011C412.454 352.534 412.54 353.091 412.511 353.648L411.411 379.092C411.352 380.257 410.852 381.356 410.012 382.166C409.172 382.975 408.055 383.434 406.888 383.45Z" fill="#2951A7"/> <path d="M445.68 383.45H420.281C419.722 383.453 419.169 383.343 418.655 383.125C418.141 382.907 417.676 382.586 417.291 382.182C416.905 381.778 416.607 381.299 416.413 380.775C416.219 380.251 416.135 379.693 416.165 379.136L417.266 353.692C417.332 352.536 417.835 351.448 418.672 350.647C419.51 349.847 420.619 349.393 421.778 349.378H447.21C447.769 349.376 448.322 349.488 448.836 349.706C449.35 349.925 449.814 350.245 450.2 350.649C450.586 351.053 450.886 351.531 451.081 352.054C451.277 352.577 451.364 353.134 451.337 353.692L450.181 379.136C450.117 380.291 449.617 381.379 448.781 382.18C447.946 382.981 446.838 383.435 445.68 383.45Z" fill="#2951A7"/> <g opacity="0.8"> <path opacity="0.8" d="M251.553 383.451H226.11C225.552 383.453 224.999 383.341 224.486 383.123C223.972 382.904 223.509 382.583 223.123 382.179C222.738 381.776 222.439 381.298 222.245 380.775C222.051 380.251 221.965 379.694 221.994 379.137L223.094 353.693C223.164 352.538 223.667 351.451 224.504 350.651C225.341 349.851 226.449 349.397 227.606 349.379H253.094C253.652 349.377 254.205 349.489 254.718 349.707C255.231 349.926 255.695 350.247 256.08 350.651C256.465 351.054 256.764 351.532 256.958 352.056C257.153 352.579 257.238 353.136 257.21 353.693L256.109 379.137C256.039 380.3 255.53 381.393 254.684 382.194C253.837 382.995 252.718 383.444 251.553 383.451Z" fill="#FAFAFA"/> <path opacity="0.8" d="M290.39 383.45H264.946C264.388 383.452 263.835 383.34 263.322 383.122C262.809 382.903 262.345 382.582 261.96 382.178C261.575 381.775 261.276 381.297 261.082 380.773C260.887 380.25 260.802 379.693 260.83 379.136L261.931 353.692C261.998 352.536 262.5 351.448 263.338 350.647C264.175 349.847 265.285 349.393 266.443 349.378H291.875C292.439 349.374 292.997 349.486 293.515 349.707C294.034 349.927 294.501 350.252 294.889 350.66C295.277 351.069 295.577 351.552 295.77 352.082C295.964 352.611 296.046 353.174 296.013 353.736L294.913 379.136C294.848 380.295 294.345 381.386 293.505 382.188C292.664 382.989 291.551 383.44 290.39 383.45Z" fill="#FAFAFA"/> <path opacity="0.8" d="M329.215 383.45H303.783C303.224 383.453 302.671 383.343 302.157 383.125C301.642 382.907 301.178 382.586 300.793 382.182C300.407 381.778 300.108 381.299 299.915 380.775C299.721 380.251 299.637 379.693 299.667 379.136L300.767 353.692C300.834 352.536 301.337 351.448 302.174 350.647C303.011 349.847 304.121 349.393 305.279 349.378H330.712C331.27 349.375 331.824 349.485 332.338 349.703C332.852 349.921 333.316 350.242 333.702 350.646C334.087 351.05 334.386 351.529 334.58 352.053C334.773 352.577 334.858 353.135 334.828 353.692L333.727 379.136C333.66 380.292 333.158 381.38 332.32 382.181C331.483 382.982 330.373 383.435 329.215 383.45Z" fill="#FAFAFA"/> <path opacity="0.8" d="M368.051 383.45H342.619C342.061 383.452 341.507 383.34 340.993 383.122C340.479 382.903 340.015 382.583 339.629 382.179C339.243 381.775 338.943 381.297 338.748 380.774C338.552 380.251 338.465 379.694 338.492 379.136L339.593 353.692C339.657 352.537 340.157 351.449 340.993 350.648C341.828 349.847 342.936 349.393 344.094 349.378H369.537C370.104 349.368 370.666 349.475 371.189 349.693C371.712 349.911 372.185 350.235 372.576 350.644C372.968 351.054 373.271 351.54 373.466 352.072C373.661 352.604 373.743 353.171 373.708 353.736L372.607 379.18C372.529 380.336 372.016 381.42 371.17 382.212C370.325 383.004 369.21 383.447 368.051 383.45Z" fill="#FAFAFA"/> <path opacity="0.8" d="M406.888 383.45H381.444C380.886 383.452 380.334 383.34 379.82 383.122C379.307 382.903 378.843 382.582 378.458 382.178C378.073 381.775 377.774 381.297 377.58 380.773C377.386 380.25 377.3 379.693 377.329 379.136L378.429 353.692C378.488 352.527 378.988 351.428 379.828 350.618C380.668 349.809 381.785 349.35 382.952 349.334H408.396C408.954 349.332 409.506 349.444 410.02 349.662C410.533 349.881 410.997 350.202 411.382 350.606C411.767 351.009 412.066 351.487 412.26 352.011C412.454 352.534 412.54 353.091 412.511 353.648L411.411 379.092C411.352 380.257 410.852 381.356 410.012 382.166C409.172 382.975 408.055 383.434 406.888 383.45Z" fill="#FAFAFA"/> <path opacity="0.8" d="M445.68 383.45H420.281C419.722 383.453 419.169 383.343 418.655 383.125C418.141 382.907 417.676 382.586 417.291 382.182C416.905 381.778 416.607 381.299 416.413 380.775C416.219 380.251 416.135 379.693 416.165 379.136L417.266 353.692C417.332 352.536 417.835 351.448 418.672 350.647C419.51 349.847 420.619 349.393 421.778 349.378H447.21C447.769 349.376 448.322 349.488 448.836 349.706C449.35 349.925 449.814 350.245 450.2 350.649C450.586 351.053 450.886 351.531 451.081 352.054C451.277 352.577 451.364 353.134 451.337 353.692L450.181 379.136C450.117 380.291 449.617 381.379 448.781 382.18C447.946 382.981 446.838 383.435 445.68 383.45Z" fill="#FAFAFA"/> </g> <path d="M249.792 422.913H224.327C223.768 422.917 223.215 422.807 222.701 422.589C222.187 422.371 221.723 422.05 221.337 421.646C220.951 421.242 220.653 420.763 220.459 420.239C220.265 419.715 220.181 419.157 220.211 418.599L221.312 393.167C221.378 392.01 221.881 390.922 222.718 390.122C223.556 389.321 224.665 388.868 225.824 388.853H251.267C251.825 388.849 252.379 388.96 252.893 389.178C253.407 389.396 253.871 389.717 254.257 390.121C254.642 390.525 254.941 391.004 255.135 391.528C255.328 392.051 255.413 392.609 255.383 393.167L254.282 418.599C254.218 419.753 253.72 420.84 252.886 421.64C252.053 422.441 250.948 422.896 249.792 422.913Z" fill="#2951A7"/> <path d="M288.607 422.913H263.163C262.605 422.917 262.051 422.807 261.537 422.589C261.023 422.371 260.559 422.05 260.173 421.646C259.788 421.241 259.489 420.763 259.295 420.239C259.102 419.715 259.017 419.157 259.047 418.599L260.148 393.167C260.212 392.01 260.714 390.92 261.552 390.119C262.39 389.318 263.501 388.865 264.66 388.853H290.092C290.652 388.848 291.206 388.957 291.722 389.174C292.237 389.392 292.703 389.713 293.09 390.117C293.476 390.521 293.776 391 293.97 391.525C294.165 392.049 294.249 392.608 294.219 393.167L293.119 418.599C293.057 419.758 292.556 420.849 291.718 421.651C290.879 422.452 289.767 422.904 288.607 422.913Z" fill="#2951A7"/> <path d="M327.432 422.913H302C301.441 422.917 300.888 422.807 300.374 422.589C299.86 422.371 299.395 422.05 299.01 421.646C298.624 421.242 298.326 420.763 298.132 420.239C297.938 419.715 297.854 419.157 297.884 418.599L298.984 393.167C299.049 392.01 299.551 390.92 300.388 390.119C301.226 389.318 302.337 388.865 303.496 388.853H329.028C329.587 388.849 330.141 388.96 330.655 389.178C331.17 389.396 331.635 389.716 332.021 390.12C332.408 390.524 332.708 391.003 332.903 391.527C333.097 392.051 333.183 392.609 333.155 393.167L331.999 418.599C331.935 419.766 331.425 420.864 330.575 421.666C329.726 422.469 328.601 422.915 327.432 422.913Z" fill="#2951A7"/> <path d="M366.269 422.913H340.836C340.277 422.917 339.723 422.807 339.209 422.589C338.694 422.371 338.229 422.05 337.843 421.646C337.456 421.242 337.156 420.764 336.962 420.24C336.767 419.716 336.681 419.158 336.709 418.599L337.81 393.167C337.871 392.011 338.371 390.921 339.207 390.12C340.043 389.318 341.153 388.865 342.311 388.853H367.754C368.313 388.849 368.866 388.96 369.38 389.178C369.895 389.396 370.359 389.717 370.744 390.121C371.13 390.525 371.429 391.004 371.622 391.528C371.816 392.051 371.9 392.609 371.87 393.167L370.77 418.599C370.706 419.755 370.205 420.843 369.37 421.644C368.534 422.445 367.426 422.898 366.269 422.913Z" fill="#2951A7"/> <path d="M405.105 422.913H379.651C379.092 422.917 378.539 422.807 378.025 422.589C377.51 422.371 377.046 422.05 376.661 421.646C376.275 421.242 375.976 420.763 375.783 420.239C375.589 419.715 375.505 419.157 375.535 418.599L376.635 393.167C376.702 392.01 377.205 390.922 378.042 390.122C378.879 389.321 379.989 388.868 381.147 388.853H406.591C407.149 388.849 407.703 388.96 408.217 389.178C408.731 389.396 409.195 389.717 409.581 390.121C409.966 390.525 410.265 391.004 410.459 391.528C410.652 392.051 410.737 392.609 410.707 393.167L409.606 418.599C409.54 419.754 409.038 420.841 408.203 421.641C407.368 422.441 406.262 422.896 405.105 422.913Z" fill="#2951A7"/> <path d="M443.942 422.913H418.498C417.94 422.917 417.386 422.807 416.872 422.589C416.358 422.371 415.894 422.05 415.508 421.646C415.123 421.242 414.824 420.763 414.63 420.239C414.437 419.715 414.352 419.157 414.382 418.599L415.483 393.167C415.547 392.01 416.049 390.92 416.887 390.119C417.725 389.318 418.836 388.865 419.995 388.853H445.427C445.986 388.849 446.54 388.96 447.055 389.178C447.57 389.396 448.034 389.716 448.421 390.12C448.807 390.524 449.107 391.003 449.302 391.527C449.497 392.051 449.583 392.609 449.554 393.167L448.399 418.599C448.338 419.748 447.844 420.832 447.018 421.632C446.191 422.432 445.092 422.89 443.942 422.913Z" fill="#2951A7"/> <g opacity="0.8"> <path opacity="0.8" d="M249.792 422.913H224.327C223.768 422.917 223.215 422.807 222.701 422.589C222.187 422.371 221.723 422.05 221.337 421.646C220.951 421.241 220.653 420.763 220.459 420.239C220.265 419.715 220.181 419.157 220.211 418.599L221.312 393.167C221.378 392.01 221.881 390.922 222.718 390.122C223.556 389.321 224.665 388.868 225.824 388.853H251.267C251.825 388.849 252.379 388.96 252.893 389.178C253.407 389.396 253.871 389.717 254.257 390.121C254.642 390.525 254.941 391.004 255.135 391.527C255.328 392.051 255.413 392.609 255.383 393.167L254.282 418.599C254.218 419.753 253.72 420.84 252.886 421.64C252.053 422.441 250.948 422.896 249.792 422.913Z" fill="#FAFAFA"/> <path opacity="0.8" d="M288.607 422.913H263.163C262.605 422.917 262.051 422.807 261.537 422.589C261.023 422.371 260.559 422.05 260.173 421.646C259.788 421.241 259.489 420.763 259.295 420.239C259.102 419.715 259.017 419.157 259.047 418.599L260.148 393.167C260.212 392.01 260.714 390.92 261.552 390.119C262.39 389.318 263.501 388.865 264.66 388.853H290.092C290.652 388.848 291.206 388.957 291.722 389.174C292.237 389.392 292.703 389.713 293.09 390.117C293.476 390.521 293.776 391 293.97 391.525C294.165 392.049 294.249 392.608 294.219 393.167L293.119 418.599C293.057 419.758 292.556 420.849 291.718 421.651C290.879 422.452 289.767 422.904 288.607 422.913Z" fill="#FAFAFA"/> <path opacity="0.8" d="M327.432 422.913H302C301.441 422.917 300.888 422.807 300.374 422.589C299.86 422.371 299.395 422.05 299.01 421.646C298.624 421.242 298.326 420.763 298.132 420.239C297.938 419.715 297.854 419.157 297.884 418.599L298.984 393.167C299.049 392.01 299.551 390.92 300.388 390.119C301.226 389.318 302.337 388.865 303.496 388.853H329.028C329.587 388.849 330.141 388.96 330.655 389.178C331.17 389.396 331.635 389.716 332.021 390.12C332.408 390.524 332.708 391.003 332.903 391.527C333.097 392.051 333.183 392.609 333.155 393.167L331.999 418.599C331.935 419.766 331.425 420.864 330.575 421.666C329.726 422.469 328.601 422.915 327.432 422.913Z" fill="#FAFAFA"/> <path opacity="0.8" d="M366.269 422.913H340.836C340.277 422.917 339.723 422.807 339.209 422.589C338.694 422.371 338.229 422.05 337.843 421.646C337.456 421.242 337.156 420.764 336.962 420.24C336.767 419.716 336.681 419.158 336.709 418.599L337.81 393.167C337.871 392.011 338.371 390.921 339.207 390.12C340.043 389.318 341.153 388.865 342.311 388.853H367.754C368.313 388.849 368.866 388.96 369.38 389.178C369.895 389.396 370.359 389.717 370.744 390.121C371.13 390.525 371.428 391.004 371.622 391.528C371.816 392.051 371.9 392.609 371.87 393.167L370.77 418.599C370.706 419.755 370.205 420.843 369.37 421.644C368.534 422.445 367.426 422.898 366.269 422.913Z" fill="#FAFAFA"/> <path opacity="0.8" d="M405.105 422.913H379.651C379.092 422.917 378.539 422.807 378.025 422.589C377.51 422.371 377.046 422.05 376.661 421.646C376.275 421.242 375.976 420.763 375.783 420.239C375.589 419.715 375.505 419.157 375.535 418.599L376.635 393.167C376.702 392.01 377.205 390.922 378.042 390.122C378.879 389.321 379.989 388.868 381.147 388.853H406.591C407.149 388.849 407.703 388.96 408.217 389.178C408.731 389.396 409.195 389.717 409.581 390.121C409.966 390.525 410.265 391.004 410.459 391.528C410.652 392.051 410.737 392.609 410.707 393.167L409.606 418.599C409.54 419.754 409.038 420.841 408.203 421.641C407.368 422.441 406.262 422.896 405.105 422.913Z" fill="#FAFAFA"/> <path opacity="0.8" d="M443.941 422.913H418.498C417.94 422.917 417.386 422.807 416.872 422.589C416.358 422.371 415.894 422.05 415.508 421.646C415.123 421.242 414.824 420.763 414.63 420.239C414.437 419.715 414.352 419.157 414.382 418.599L415.483 393.167C415.547 392.01 416.049 390.92 416.887 390.119C417.724 389.318 418.836 388.865 419.995 388.853H445.427C445.986 388.849 446.54 388.96 447.055 389.178C447.569 389.396 448.034 389.716 448.421 390.12C448.807 390.524 449.107 391.003 449.302 391.527C449.497 392.051 449.582 392.609 449.554 393.167L448.398 418.599C448.338 419.748 447.844 420.832 447.017 421.632C446.191 422.432 445.092 422.89 443.941 422.913Z" fill="#FAFAFA"/> </g> <path d="M242.584 289.291C233.208 289.291 225.857 278.385 225.857 264.464C225.857 250.543 233.208 239.648 242.584 239.648C251.96 239.648 259.323 250.554 259.323 264.464C259.28 265.117 258.991 265.728 258.513 266.175C258.036 266.622 257.407 266.871 256.753 266.871C256.099 266.871 255.47 266.622 254.993 266.175C254.515 265.728 254.226 265.117 254.183 264.464C254.183 253.8 248.879 244.776 242.584 244.776C236.289 244.776 230.985 253.8 230.985 264.464C230.985 275.128 236.3 284.152 242.584 284.152C242.936 284.129 243.288 284.178 243.62 284.297C243.952 284.416 244.256 284.601 244.513 284.842C244.77 285.083 244.975 285.374 245.115 285.698C245.255 286.021 245.328 286.369 245.328 286.722C245.328 287.074 245.255 287.423 245.115 287.746C244.975 288.069 244.77 288.36 244.513 288.601C244.256 288.842 243.952 289.028 243.62 289.146C243.288 289.265 242.936 289.314 242.584 289.291Z" fill="#2951A7"/> <path d="M281.421 289.291C272.044 289.291 264.693 278.386 264.693 264.464C264.693 250.543 272.044 239.648 281.421 239.648C290.797 239.648 298.214 250.554 298.214 264.464C298.171 265.117 297.882 265.728 297.405 266.175C296.928 266.622 296.298 266.871 295.644 266.871C294.991 266.871 294.361 266.622 293.884 266.175C293.407 265.728 293.118 265.117 293.075 264.464C293.075 253.8 287.77 244.776 281.476 244.776C275.181 244.776 269.876 253.8 269.876 264.464C269.876 275.128 275.192 284.152 281.476 284.152C282.128 284.195 282.74 284.484 283.187 284.961C283.634 285.439 283.882 286.068 283.882 286.722C283.882 287.376 283.634 288.005 283.187 288.482C282.74 288.959 282.128 289.249 281.476 289.291H281.421Z" fill="#2951A7"/> <path d="M320.224 289.291C310.837 289.291 303.485 278.386 303.485 264.464C303.485 250.543 310.837 239.648 320.224 239.648C329.611 239.648 336.951 250.554 336.951 264.464C336.951 265.144 336.681 265.797 336.2 266.277C335.72 266.758 335.067 267.028 334.387 267.028C333.707 267.028 333.055 266.758 332.574 266.277C332.093 265.797 331.823 265.144 331.823 264.464C331.823 253.8 326.508 244.776 320.224 244.776C313.94 244.776 308.625 253.8 308.625 264.464C308.625 275.128 313.94 284.152 320.224 284.152C320.876 284.195 321.488 284.484 321.935 284.961C322.382 285.439 322.631 286.068 322.631 286.722C322.631 287.376 322.382 288.005 321.935 288.482C321.488 288.959 320.876 289.249 320.224 289.291Z" fill="#2951A7"/> <path d="M359.093 289.291C349.706 289.291 342.355 278.386 342.355 264.464C342.355 250.543 349.706 239.648 359.093 239.648C368.481 239.648 375.821 250.554 375.821 264.464C375.821 265.144 375.551 265.797 375.07 266.277C374.589 266.758 373.937 267.028 373.257 267.028C372.577 267.028 371.924 266.758 371.444 266.277C370.963 265.797 370.693 265.144 370.693 264.464C370.693 253.8 365.377 244.776 359.093 244.776C352.81 244.776 347.494 253.8 347.494 264.464C347.494 275.128 352.799 284.152 359.093 284.152C359.746 284.195 360.358 284.484 360.805 284.961C361.252 285.439 361.5 286.068 361.5 286.722C361.5 287.376 361.252 288.005 360.805 288.482C360.358 288.959 359.746 289.249 359.093 289.291Z" fill="#2951A7"/> <path d="M397.919 289.291C388.543 289.291 381.191 278.385 381.191 264.464C381.191 250.543 388.543 239.648 397.919 239.648C407.295 239.648 414.657 250.554 414.657 264.464C414.615 265.117 414.325 265.728 413.848 266.175C413.371 266.622 412.742 266.871 412.088 266.871C411.434 266.871 410.804 266.622 410.327 266.175C409.85 265.728 409.561 265.117 409.518 264.464C409.518 253.8 404.214 244.776 397.919 244.776C391.624 244.776 386.32 253.8 386.32 264.464C386.32 275.128 391.635 284.152 397.919 284.152C398.27 284.129 398.623 284.178 398.955 284.297C399.286 284.416 399.59 284.601 399.847 284.842C400.105 285.083 400.31 285.374 400.45 285.698C400.59 286.021 400.662 286.369 400.662 286.722C400.662 287.074 400.59 287.423 400.45 287.746C400.31 288.069 400.105 288.36 399.847 288.601C399.59 288.842 399.286 289.028 398.955 289.146C398.623 289.265 398.27 289.314 397.919 289.291Z" fill="#2951A7"/> <path d="M436.755 289.291C427.379 289.291 420.028 278.386 420.028 264.464C420.028 250.543 427.379 239.648 436.755 239.648C446.132 239.648 453.494 250.554 453.494 264.464C453.451 265.117 453.162 265.728 452.685 266.175C452.207 266.622 451.578 266.871 450.924 266.871C450.27 266.871 449.641 266.622 449.164 266.175C448.687 265.728 448.397 265.117 448.354 264.464C448.354 253.8 443.039 244.776 436.755 244.776C430.471 244.776 425.156 253.8 425.156 264.464C425.156 275.128 430.471 284.152 436.755 284.152C437.408 284.195 438.02 284.484 438.466 284.961C438.913 285.439 439.162 286.068 439.162 286.722C439.162 287.376 438.913 288.005 438.466 288.482C438.02 288.959 437.408 289.249 436.755 289.291Z" fill="#2951A7"/> <g opacity="0.3"> <path opacity="0.3" d="M242.584 289.291C233.208 289.291 225.857 278.385 225.857 264.464C225.857 250.543 233.208 239.648 242.584 239.648C251.96 239.648 259.323 250.554 259.323 264.464C259.28 265.117 258.991 265.728 258.513 266.175C258.036 266.622 257.407 266.871 256.753 266.871C256.099 266.871 255.47 266.622 254.993 266.175C254.515 265.728 254.226 265.117 254.183 264.464C254.183 253.8 248.879 244.776 242.584 244.776C236.289 244.776 230.985 253.8 230.985 264.464C230.985 275.128 236.3 284.152 242.584 284.152C242.936 284.129 243.288 284.178 243.62 284.297C243.952 284.416 244.256 284.601 244.513 284.842C244.77 285.083 244.975 285.374 245.115 285.698C245.255 286.021 245.328 286.369 245.328 286.722C245.328 287.074 245.255 287.423 245.115 287.746C244.975 288.069 244.77 288.36 244.513 288.601C244.256 288.842 243.952 289.028 243.62 289.146C243.288 289.265 242.936 289.314 242.584 289.291Z" fill="black"/> <path opacity="0.3" d="M281.421 289.291C272.044 289.291 264.693 278.386 264.693 264.464C264.693 250.543 272.044 239.648 281.421 239.648C290.797 239.648 298.214 250.554 298.214 264.464C298.171 265.117 297.882 265.728 297.405 266.175C296.928 266.622 296.298 266.871 295.644 266.871C294.991 266.871 294.361 266.622 293.884 266.175C293.407 265.728 293.117 265.117 293.075 264.464C293.075 253.8 287.77 244.776 281.476 244.776C275.181 244.776 269.876 253.8 269.876 264.464C269.876 275.128 275.192 284.152 281.476 284.152C282.128 284.195 282.74 284.484 283.187 284.961C283.634 285.439 283.882 286.068 283.882 286.722C283.882 287.376 283.634 288.005 283.187 288.482C282.74 288.959 282.128 289.249 281.476 289.291H281.421Z" fill="black"/> <path opacity="0.3" d="M320.224 289.291C310.837 289.291 303.485 278.386 303.485 264.464C303.485 250.543 310.837 239.648 320.224 239.648C329.611 239.648 336.951 250.554 336.951 264.464C336.951 265.144 336.681 265.797 336.2 266.277C335.72 266.758 335.067 267.028 334.387 267.028C333.707 267.028 333.055 266.758 332.574 266.277C332.093 265.797 331.823 265.144 331.823 264.464C331.823 253.8 326.508 244.776 320.224 244.776C313.94 244.776 308.625 253.8 308.625 264.464C308.625 275.128 313.94 284.152 320.224 284.152C320.876 284.195 321.488 284.484 321.935 284.961C322.382 285.439 322.631 286.068 322.631 286.722C322.631 287.376 322.382 288.005 321.935 288.482C321.488 288.959 320.876 289.249 320.224 289.291Z" fill="black"/> <path opacity="0.3" d="M359.093 289.291C349.706 289.291 342.355 278.386 342.355 264.464C342.355 250.543 349.706 239.648 359.093 239.648C368.481 239.648 375.821 250.554 375.821 264.464C375.821 265.144 375.551 265.797 375.07 266.277C374.589 266.758 373.937 267.028 373.257 267.028C372.577 267.028 371.925 266.758 371.444 266.277C370.963 265.797 370.693 265.144 370.693 264.464C370.693 253.8 365.377 244.776 359.093 244.776C352.81 244.776 347.494 253.8 347.494 264.464C347.494 275.128 352.799 284.152 359.093 284.152C359.746 284.195 360.358 284.484 360.805 284.961C361.252 285.439 361.5 286.068 361.5 286.722C361.5 287.376 361.252 288.005 360.805 288.482C360.358 288.959 359.746 289.249 359.093 289.291Z" fill="black"/> <path opacity="0.3" d="M397.919 289.291C388.543 289.291 381.191 278.386 381.191 264.464C381.191 250.543 388.543 239.648 397.919 239.648C407.295 239.648 414.657 250.554 414.657 264.464C414.615 265.117 414.325 265.728 413.848 266.175C413.371 266.622 412.742 266.871 412.088 266.871C411.434 266.871 410.804 266.622 410.327 266.175C409.85 265.728 409.561 265.117 409.518 264.464C409.518 253.8 404.214 244.776 397.919 244.776C391.624 244.776 386.32 253.8 386.32 264.464C386.32 275.128 391.635 284.152 397.919 284.152C398.27 284.129 398.623 284.178 398.955 284.297C399.286 284.416 399.59 284.601 399.847 284.842C400.105 285.083 400.31 285.374 400.45 285.698C400.59 286.021 400.662 286.369 400.662 286.722C400.662 287.074 400.59 287.423 400.45 287.746C400.31 288.069 400.105 288.36 399.847 288.601C399.59 288.842 399.286 289.028 398.955 289.146C398.623 289.265 398.27 289.314 397.919 289.291Z" fill="black"/> <path opacity="0.3" d="M436.755 289.291C427.379 289.291 420.028 278.386 420.028 264.464C420.028 250.543 427.379 239.648 436.755 239.648C446.132 239.648 453.494 250.554 453.494 264.464C453.451 265.117 453.162 265.728 452.685 266.175C452.207 266.622 451.578 266.871 450.924 266.871C450.27 266.871 449.641 266.622 449.164 266.175C448.687 265.728 448.397 265.117 448.354 264.464C448.354 253.8 443.039 244.776 436.755 244.776C430.471 244.776 425.156 253.8 425.156 264.464C425.156 275.128 430.471 284.152 436.755 284.152C437.408 284.195 438.02 284.484 438.466 284.961C438.913 285.439 439.162 286.068 439.162 286.722C439.162 287.376 438.913 288.005 438.466 288.482C438.02 288.959 437.408 289.249 436.755 289.291Z" fill="black"/> </g> <path d="M361.691 345.395C352.711 343.612 342.63 345.692 339.031 355.156C336.137 362.771 339.846 371.025 347.835 373.039C354.879 374.811 367.028 372.643 369.537 364.521C372.409 355.233 360.733 352.218 354.185 351.667C352.215 351.502 352.226 354.584 354.185 354.749C357.168 355.002 360.579 355.167 363.22 356.807C368.723 360.251 366.456 365.776 361.768 368.417C357.08 371.058 349.893 371.718 345.26 368.791C340.198 365.567 340.033 358.479 343.059 353.857C347.032 347.75 354.284 347.067 360.821 348.355C362.758 348.74 363.583 345.769 361.636 345.384L361.691 345.395Z" fill="#2951A7"/> <path opacity="0.1" d="M361.691 345.395C352.711 343.612 342.63 345.692 339.031 355.156C336.137 362.771 339.846 371.025 347.835 373.039C354.879 374.811 367.028 372.643 369.537 364.521C372.409 355.233 360.733 352.218 354.185 351.667C352.215 351.502 352.226 354.584 354.185 354.749C357.168 355.002 360.579 355.167 363.22 356.807C368.723 360.251 366.456 365.776 361.768 368.417C357.08 371.058 349.893 371.718 345.26 368.791C340.198 365.567 340.033 358.479 343.059 353.857C347.032 347.75 354.284 347.067 360.821 348.355C362.758 348.74 363.583 345.769 361.636 345.384L361.691 345.395Z" fill="#FAFAFA"/> <path d="M262.613 309.948C271.201 321.332 280.776 331.938 291.226 341.642C292.679 342.995 294.869 340.817 293.427 339.441C283.156 329.929 273.74 319.533 265.287 308.374C264.11 306.811 261.436 308.374 262.635 309.926L262.613 309.948Z" fill="#2951A7"/> <path d="M265.794 340.354C272.286 328.81 283.655 318.961 294.406 311.422C296.013 310.322 294.483 307.615 292.855 308.759C281.674 316.617 269.92 326.763 263.141 338.792C262.955 339.142 262.912 339.551 263.019 339.933C263.127 340.314 263.378 340.64 263.72 340.841C264.062 341.043 264.468 341.105 264.855 341.014C265.241 340.923 265.577 340.687 265.794 340.354Z" fill="#2951A7"/> <g opacity="0.2"> <path opacity="0.2" d="M262.613 309.948C271.201 321.332 280.776 331.938 291.226 341.642C292.679 342.995 294.869 340.817 293.427 339.441C283.156 329.929 273.74 319.533 265.287 308.374C264.11 306.811 261.436 308.374 262.635 309.926L262.613 309.948Z" fill="black"/> <path opacity="0.2" d="M265.794 340.354C272.286 328.81 283.655 318.961 294.406 311.422C296.013 310.322 294.483 307.615 292.855 308.759C281.674 316.617 269.92 326.763 263.141 338.792C262.955 339.142 262.912 339.551 263.02 339.933C263.127 340.314 263.378 340.64 263.72 340.841C264.062 341.043 264.468 341.105 264.855 341.014C265.241 340.923 265.577 340.687 265.794 340.354Z" fill="black"/> </g> <path d="M385.01 319.797H405.094C405.479 319.764 405.837 319.589 406.098 319.304C406.36 319.02 406.505 318.648 406.505 318.262C406.505 317.876 406.36 317.504 406.098 317.219C405.837 316.935 405.479 316.759 405.094 316.727H385.01C384.625 316.759 384.267 316.935 384.006 317.219C383.744 317.504 383.599 317.876 383.599 318.262C383.599 318.648 383.744 319.02 384.006 319.304C384.267 319.589 384.625 319.764 385.01 319.797Z" fill="#2951A7"/> <path d="M384.779 325.509H396.422C396.831 325.509 397.223 325.346 397.512 325.057C397.801 324.768 397.963 324.377 397.963 323.968C397.963 323.559 397.801 323.167 397.512 322.879C397.223 322.59 396.831 322.427 396.422 322.427H384.779C384.37 322.427 383.978 322.59 383.689 322.879C383.401 323.167 383.238 323.559 383.238 323.968C383.238 324.377 383.401 324.768 383.689 325.057C383.978 325.346 384.37 325.509 384.779 325.509Z" fill="#2951A7"/> <g opacity="0.1"> <path opacity="0.1" d="M385.01 319.797H405.094C405.479 319.764 405.837 319.589 406.098 319.304C406.36 319.02 406.505 318.648 406.505 318.262C406.505 317.876 406.36 317.504 406.098 317.219C405.837 316.935 405.479 316.759 405.094 316.727H385.01C384.625 316.759 384.267 316.935 384.006 317.219C383.744 317.504 383.599 317.876 383.599 318.262C383.599 318.648 383.744 319.02 384.006 319.304C384.267 319.589 384.625 319.764 385.01 319.797Z" fill="#FAFAFA"/> <path opacity="0.1" d="M384.779 325.509H396.422C396.831 325.509 397.223 325.346 397.512 325.057C397.801 324.768 397.963 324.377 397.963 323.968C397.963 323.559 397.801 323.167 397.512 322.879C397.223 322.59 396.831 322.427 396.422 322.427H384.779C384.37 322.427 383.978 322.59 383.689 322.879C383.401 323.167 383.238 323.559 383.238 323.968C383.238 324.377 383.401 324.768 383.689 325.057C383.978 325.346 384.37 325.509 384.779 325.509Z" fill="#FAFAFA"/> </g> <path d="M264.715 398.636H281.938C282.346 398.636 282.738 398.474 283.027 398.185C283.316 397.896 283.478 397.504 283.478 397.096C283.478 396.687 283.316 396.295 283.027 396.006C282.738 395.717 282.346 395.555 281.938 395.555H264.715C264.306 395.555 263.915 395.717 263.626 396.006C263.337 396.295 263.174 396.687 263.174 397.096C263.174 397.504 263.337 397.896 263.626 398.185C263.915 398.474 264.306 398.636 264.715 398.636Z" fill="#2951A7"/> <path d="M264.099 405.25H286.439C286.847 405.25 287.239 405.088 287.528 404.799C287.817 404.51 287.98 404.118 287.98 403.71C287.98 403.301 287.817 402.909 287.528 402.62C287.239 402.331 286.847 402.169 286.439 402.169H264.099C263.69 402.169 263.298 402.331 263.009 402.62C262.72 402.909 262.558 403.301 262.558 403.71C262.558 404.118 262.72 404.51 263.009 404.799C263.298 405.088 263.69 405.25 264.099 405.25Z" fill="#2951A7"/> <path d="M264.099 412.062H275.269C275.677 412.062 276.069 411.9 276.358 411.611C276.647 411.322 276.809 410.93 276.809 410.522C276.809 410.113 276.647 409.721 276.358 409.432C276.069 409.143 275.677 408.981 275.269 408.981H264.099C263.69 408.981 263.298 409.143 263.009 409.432C262.72 409.721 262.558 410.113 262.558 410.522C262.558 410.93 262.72 411.322 263.009 411.611C263.298 411.9 263.69 412.062 264.099 412.062Z" fill="#2951A7"/> <g opacity="0.1"> <path opacity="0.1" d="M264.715 398.636H281.938C282.346 398.636 282.738 398.474 283.027 398.185C283.316 397.896 283.478 397.504 283.478 397.096C283.478 396.687 283.316 396.295 283.027 396.006C282.738 395.717 282.346 395.555 281.938 395.555H264.715C264.306 395.555 263.915 395.717 263.626 396.006C263.337 396.295 263.174 396.687 263.174 397.096C263.174 397.504 263.337 397.896 263.626 398.185C263.915 398.474 264.306 398.636 264.715 398.636Z" fill="#FAFAFA"/> <path opacity="0.1" d="M264.099 405.25H286.439C286.847 405.25 287.239 405.088 287.528 404.799C287.817 404.51 287.98 404.118 287.98 403.71C287.98 403.301 287.817 402.909 287.528 402.62C287.239 402.331 286.847 402.169 286.439 402.169H264.099C263.69 402.169 263.298 402.331 263.009 402.62C262.72 402.909 262.558 403.301 262.558 403.71C262.558 404.118 262.72 404.51 263.009 404.799C263.298 405.088 263.69 405.25 264.099 405.25Z" fill="#FAFAFA"/> <path opacity="0.1" d="M264.099 412.062H275.269C275.677 412.062 276.069 411.9 276.358 411.611C276.647 411.322 276.809 410.93 276.809 410.522C276.809 410.113 276.647 409.721 276.358 409.432C276.069 409.143 275.677 408.981 275.269 408.981H264.099C263.69 408.981 263.298 409.143 263.009 409.432C262.72 409.721 262.558 410.113 262.558 410.522C262.558 410.93 262.72 411.322 263.009 411.611C263.298 411.9 263.69 412.062 264.099 412.062Z" fill="#FAFAFA"/> </g> <path d="M143.254 225.848L148.459 225.617L146.104 235.521C144.246 234.249 142.553 232.752 141.064 231.064C140.634 230.559 140.421 229.905 140.47 229.244C140.52 228.582 140.828 227.967 141.328 227.532L143.254 225.848Z" fill="#E4897B"/> <path d="M154.501 230.954L152.168 239.01L146.104 235.499L148.459 225.617L154.501 230.954Z" fill="#E4897B"/> <path d="M153.474 183.131L142.823 184.117L167.252 447.954L177.903 446.968L153.474 183.131Z" fill="#2951A7"/> <path opacity="0.3" d="M153.474 183.131L142.823 184.117L167.252 447.954L177.903 446.968L153.474 183.131Z" fill="black"/> <path d="M174.781 181.153L164.13 182.139L188.559 445.977L199.21 444.99L174.781 181.153Z" fill="#2951A7"/> <path opacity="0.3" d="M174.781 181.153L164.13 182.139L188.559 445.977L199.21 444.99L174.781 181.153Z" fill="black"/> <path d="M164.133 182.142L153.482 183.128L177.911 446.966L188.562 445.979L164.133 182.142Z" fill="#2951A7"/> <path opacity="0.1" d="M164.133 182.142L153.482 183.128L177.911 446.966L188.562 445.979L164.133 182.142Z" fill="black"/> <path d="M161.885 163.692L152.3 164.583L142.824 184.117L174.783 181.157L161.885 163.692Z" fill="#2951A7"/> <g opacity="0.8"> <path opacity="0.8" d="M161.885 163.692L152.3 164.583L142.824 184.117L174.783 181.157L161.885 163.692Z" fill="#FAFAFA"/> </g> <path d="M156.36 156.209L152.3 164.583L161.885 163.692L156.36 156.209Z" fill="#263238"/> <path d="M236.895 171.12C237.995 172.221 238.908 173.266 239.855 174.422C240.801 175.577 241.704 176.623 242.606 177.723C244.422 179.924 246.117 182.246 247.767 184.612C251.17 189.423 254.041 194.589 256.329 200.019C256.604 200.724 256.858 201.461 257.122 202.22L257.518 203.321C257.736 203.98 257.891 204.658 257.98 205.346C258.219 207.536 257.928 209.751 257.133 211.806C255.945 214.838 254.281 217.662 252.202 220.169C248.528 224.666 244.298 228.678 239.613 232.11L235.464 227.708C238.729 223.626 241.715 219.328 244.4 214.843C245.576 212.927 246.48 210.857 247.085 208.691C247.252 208.16 247.271 207.593 247.14 207.051L246.766 206.237C246.513 205.698 246.293 205.137 246.018 204.608C243.688 200.088 240.963 195.783 237.874 191.744C236.333 189.642 234.705 187.595 233.054 185.548C232.228 184.535 231.392 183.523 230.534 182.532L228.025 179.638L236.895 171.12Z" fill="#E4897B"/> <path d="M228.806 231.064L233.494 240.341L238.083 236.391L234.319 229.799L228.806 231.064Z" fill="#E4897B"/> <path d="M193.491 176.557C190.637 181.993 187.673 187.367 184.599 192.679C183.091 195.353 181.507 197.983 179.966 200.636L177.6 204.597L177.006 205.588C176.709 206.061 176.378 206.622 176.081 206.996C175.784 207.371 175.487 207.822 175.201 208.163C174.915 208.504 174.607 208.889 174.32 209.208C172.097 211.63 169.731 213.916 167.233 216.054C164.823 218.111 162.413 220.114 159.926 222.018C155.007 225.859 149.956 229.436 144.717 232.847L140.942 228.093L153.983 215.25C156.118 213.049 158.275 210.98 160.311 208.801C162.312 206.751 164.196 204.59 165.957 202.33C166.169 202.066 166.357 201.813 166.518 201.571C166.705 201.307 166.837 201.087 166.969 200.867C167.083 200.69 167.186 200.506 167.277 200.316L167.784 199.293L169.819 195.144C171.217 192.404 172.582 189.642 174.001 186.923C176.811 181.443 179.746 176.025 182.805 170.669L193.491 176.557Z" fill="#E4897B"/> <path d="M224.382 139.382C224.239 140.02 224.47 140.626 224.877 140.736C225.284 140.846 225.736 140.406 225.879 139.767C226.022 139.129 225.78 138.524 225.372 138.414C224.965 138.304 224.481 138.744 224.382 139.382Z" fill="#263238"/> <path d="M224.404 140.615C224.749 142.761 225.378 144.852 226.275 146.832C225.768 147.033 225.224 147.12 224.68 147.088C224.137 147.055 223.607 146.904 223.127 146.645L224.404 140.615Z" fill="#DE5753"/> <path d="M226.066 135.508C225.987 135.509 225.911 135.486 225.846 135.442C225.439 135.194 224.978 135.048 224.503 135.017C224.027 134.987 223.551 135.072 223.116 135.266C223.021 135.303 222.916 135.302 222.821 135.263C222.727 135.224 222.651 135.15 222.61 135.057C222.573 134.962 222.574 134.856 222.613 134.762C222.652 134.668 222.726 134.592 222.819 134.551C223.376 134.312 223.981 134.211 224.585 134.257C225.189 134.303 225.772 134.495 226.286 134.815C226.328 134.843 226.363 134.878 226.391 134.92C226.419 134.962 226.438 135.009 226.447 135.058C226.456 135.107 226.456 135.158 226.445 135.207C226.434 135.256 226.414 135.302 226.385 135.343C226.349 135.395 226.301 135.437 226.246 135.465C226.19 135.494 226.128 135.509 226.066 135.508Z" fill="#263238"/> <path d="M202.119 141.814C203.506 147.735 205.079 158.564 201.096 162.514C201.096 162.514 202.944 168.512 213.938 168.512C226.044 168.512 219.441 162.514 219.441 162.514C212.783 160.941 212.761 156.044 213.729 151.455L202.119 141.814Z" fill="#E4897B"/> <path d="M199.599 164.572C198.652 162.68 197.618 160.501 199.599 159.818C201.734 159.07 213.586 158.311 217.735 159.708C218.84 160.004 219.787 160.719 220.375 161.701C220.962 162.682 221.144 163.855 220.882 164.969L199.599 164.572Z" fill="#2951A7"/> <path opacity="0.6" d="M199.599 164.572C198.652 162.68 197.618 160.501 199.599 159.818C201.734 159.07 213.586 158.311 217.735 159.708C218.84 160.004 219.787 160.719 220.375 161.701C220.962 162.682 221.144 163.855 220.882 164.969L199.599 164.572Z" fill="#FAFAFA"/> <path d="M183.763 440.675C183.052 440.671 182.344 440.594 181.65 440.444C181.614 440.438 181.581 440.421 181.556 440.395C181.53 440.37 181.513 440.337 181.507 440.301C181.499 440.264 181.503 440.226 181.516 440.191C181.53 440.156 181.553 440.125 181.584 440.103C181.672 440.037 183.785 438.518 185.017 438.782C185.15 438.806 185.277 438.858 185.387 438.936C185.498 439.014 185.589 439.116 185.656 439.234C185.755 439.365 185.808 439.526 185.808 439.69C185.808 439.855 185.755 440.015 185.656 440.147C185.391 440.576 184.588 440.675 183.763 440.675ZM182.189 440.169C183.4 440.367 185.05 440.367 185.38 439.916C185.38 439.916 185.512 439.74 185.325 439.421C185.285 439.351 185.23 439.291 185.163 439.245C185.096 439.199 185.02 439.169 184.94 439.157C183.941 439.221 182.983 439.581 182.189 440.191V440.169Z" fill="#FAFAFA"/> <path d="M181.694 440.477H181.595C181.566 440.461 181.543 440.437 181.527 440.407C181.511 440.378 181.504 440.345 181.507 440.312C181.507 440.213 181.606 437.88 182.519 437.11C182.629 437.011 182.758 436.938 182.899 436.894C183.039 436.851 183.188 436.838 183.334 436.857C183.482 436.856 183.626 436.908 183.74 437.002C183.855 437.097 183.933 437.228 183.961 437.374C184.137 438.276 182.596 440.037 181.76 440.488L181.694 440.477ZM183.201 437.176C183.043 437.178 182.891 437.236 182.772 437.341C182.232 438.08 181.933 438.968 181.914 439.883C182.706 439.256 183.686 437.924 183.587 437.396C183.587 437.341 183.587 437.209 183.289 437.176H183.201Z" fill="#FAFAFA"/> <path d="M232.316 440.675C231.482 440.675 230.65 440.598 229.829 440.444C229.791 440.438 229.755 440.42 229.728 440.392C229.7 440.364 229.682 440.329 229.675 440.29C229.669 440.252 229.674 440.213 229.69 440.178C229.705 440.143 229.731 440.113 229.763 440.092C230.171 439.861 233.758 437.803 234.628 439.223C234.715 439.347 234.761 439.495 234.761 439.646C234.761 439.798 234.715 439.946 234.628 440.07C234.385 440.554 233.351 440.675 232.316 440.675ZM230.435 440.158C231.953 440.378 234 440.345 234.352 439.85C234.352 439.85 234.462 439.696 234.297 439.421C233.813 438.639 231.634 439.575 230.435 440.18V440.158Z" fill="#FAFAFA"/> <path d="M229.862 440.477C229.826 440.487 229.788 440.487 229.752 440.477C229.725 440.458 229.703 440.431 229.689 440.4C229.676 440.369 229.671 440.335 229.675 440.301C229.675 440.213 229.807 438.034 230.776 437.187C230.923 437.052 231.098 436.953 231.288 436.896C231.479 436.839 231.68 436.825 231.876 436.857C232.416 436.912 232.57 437.187 232.603 437.407C232.757 438.342 230.919 440.048 229.95 440.488L229.862 440.477ZM231.711 437.176C231.467 437.173 231.231 437.263 231.051 437.429C230.472 438.138 230.137 439.013 230.094 439.927C231.062 439.333 232.294 437.979 232.217 437.418C232.217 437.363 232.217 437.22 231.821 437.176H231.711Z" fill="#FAFAFA"/> <path d="M220.97 440.279H229.059L229.136 421.56H221.058L220.97 440.279Z" fill="#E4897B"/> <path d="M172.428 440.279H180.516L183.862 421.56H175.773L172.428 440.279Z" fill="#E4897B"/> <path d="M181.056 439.344H171.976C171.816 439.342 171.66 439.397 171.537 439.5C171.414 439.603 171.331 439.747 171.305 439.905L169.985 447.091C169.957 447.269 169.969 447.451 170.02 447.625C170.07 447.798 170.157 447.958 170.275 448.094C170.394 448.23 170.54 448.339 170.705 448.413C170.869 448.487 171.048 448.524 171.228 448.522C174.398 448.467 175.927 448.28 179.922 448.28C182.376 448.28 187.449 448.544 190.85 448.544C194.25 448.544 194.548 445.242 193.15 444.879C186.866 443.515 184.445 441.633 182.387 439.85C182.02 439.525 181.546 439.345 181.056 439.344Z" fill="#263238"/> <path d="M228.971 439.344H220.167C220.007 439.342 219.851 439.397 219.727 439.5C219.604 439.603 219.522 439.747 219.496 439.905L218.175 447.091C218.144 447.268 218.153 447.45 218.2 447.623C218.248 447.796 218.333 447.957 218.45 448.094C218.566 448.23 218.712 448.339 218.875 448.413C219.039 448.487 219.217 448.524 219.397 448.522C222.577 448.467 227.166 448.28 231.172 448.28C235.86 448.28 239.91 448.544 245.401 448.544C248.703 448.544 249.506 445.242 248.109 444.879C241.726 443.493 236.553 443.349 230.963 439.982C230.372 439.587 229.682 439.366 228.971 439.344Z" fill="#263238"/> <path d="M185.678 164.341C178.161 166.08 170.271 186.736 170.271 186.736L185.887 197.169C189.472 191.733 192.615 186.018 195.285 180.078C199.412 170.625 193.348 162.57 185.678 164.341Z" fill="#2951A7"/> <path opacity="0.7" d="M185.678 164.341C178.161 166.08 170.271 186.736 170.271 186.736L185.887 197.169C189.472 191.733 192.615 186.018 195.285 180.078C199.412 170.625 193.348 162.57 185.678 164.341Z" fill="black"/> <path d="M191.609 177.514L185.149 196.674L185.887 197.169C185.887 197.169 188.836 192.767 191.972 186.901L191.609 177.514Z" fill="#2951A7"/> <path opacity="0.8" d="M191.609 177.514L185.149 196.674L185.887 197.169C185.887 197.169 188.836 192.767 191.972 186.901L191.609 177.514Z" fill="black"/> <path d="M236.113 200.46C236.047 209.484 235.508 220.709 234.165 234.641H190.916C190.355 228.038 193.282 195.617 185.678 164.341C190.434 163.419 195.247 162.809 200.083 162.514C206.204 162.162 212.34 162.162 218.461 162.514C222.683 162.925 226.866 163.661 230.974 164.715C230.974 164.715 234.672 168.721 235.794 187.507C236.014 191.259 236.135 195.529 236.113 200.46Z" fill="#2951A7"/> <path opacity="0.7" d="M236.113 200.46C236.047 209.484 235.508 220.709 234.165 234.641H190.916C190.355 228.038 193.282 195.617 185.678 164.341C190.434 163.419 195.247 162.809 200.083 162.514C206.204 162.162 212.34 162.162 218.461 162.514C222.683 162.925 226.866 163.661 230.974 164.715C230.974 164.715 234.672 168.721 235.794 187.507C236.014 191.259 236.135 195.529 236.113 200.46Z" fill="black"/> <path d="M236.113 200.46C233.494 195.683 228.74 186.098 229.411 180.651L235.794 187.562C236.014 191.259 236.135 195.529 236.113 200.46Z" fill="#2951A7"/> <path opacity="0.8" d="M236.113 200.46C233.494 195.683 228.74 186.098 229.411 180.651L235.794 187.562C236.014 191.259 236.135 195.529 236.113 200.46Z" fill="black"/> <path d="M222.5 172.067C221.818 179.77 239.283 198.303 239.283 198.303L253.281 186.901C249.615 180.714 245.222 174.988 240.196 169.844C232.008 161.931 223.27 163.439 222.5 172.067Z" fill="#2951A7"/> <path opacity="0.7" d="M222.5 172.067C221.818 179.77 239.283 198.303 239.283 198.303L253.281 186.901C249.615 180.714 245.222 174.988 240.196 169.844C232.008 161.931 223.27 163.439 222.5 172.067Z" fill="black"/> <path d="M229.136 421.571L229.092 431.211H221.014L221.047 421.571H229.136Z" fill="#CE6F64"/> <path d="M175.773 421.571H183.862L182.134 431.211H174.045L175.773 421.571Z" fill="#CE6F64"/> <path d="M203.572 132.702C202.394 140.67 201.305 145.248 204.364 150.31C205.336 151.949 206.739 153.291 208.42 154.19C210.101 155.09 211.995 155.512 213.899 155.411C215.802 155.31 217.642 154.69 219.218 153.618C220.795 152.546 222.047 151.064 222.841 149.331C226 142.728 227.408 130.798 220.464 125.758C218.999 124.627 217.262 123.901 215.427 123.654C213.592 123.407 211.725 123.648 210.013 124.352C208.3 125.055 206.804 126.198 205.673 127.664C204.542 129.13 203.818 130.867 203.572 132.702Z" fill="#E4897B"/> <path d="M227.507 128.927C225.126 130.228 222.505 131.033 219.804 131.293C217.79 140.505 212.431 151.102 203.759 148.054C200.457 146.953 197.156 138.953 196.815 131.855C196.242 132.548 195.857 133.45 195.56 133.825C195.065 130.67 195.422 127.441 196.594 124.47C198.994 117.669 200.589 122.181 203.197 118.055C204.881 115.325 207.875 113.917 213.102 113.741C211.638 114.5 211.363 115.721 213.531 115.545C215.699 115.369 224.954 114.863 230.347 118.506C226.704 119.331 228.927 125.109 233.791 122.027C232.019 124.9 229.818 127.629 227.507 128.927Z" fill="#263238"/> <path d="M213.575 137.632C213.606 139.658 214.285 141.621 215.512 143.234C217.152 145.347 219.034 144.334 219.485 141.957C219.881 139.844 219.485 136.191 217.438 134.914C215.391 133.638 213.564 135.211 213.575 137.632Z" fill="#E4897B"/> <path d="M203.715 118.913C202.616 118.843 201.552 118.506 200.614 117.931C199.676 117.355 198.893 116.559 198.333 115.611C198.333 115.611 198.19 122.06 203.715 118.913Z" fill="#1E2A4C"/> <path d="M218.813 234.641C218.813 234.641 212.034 296.423 207.886 319.566C203.351 344.877 185.876 429.351 185.876 429.351H171.019C171.019 429.351 181.562 346.957 183.763 321.822C186.129 294.585 190.96 234.597 190.96 234.597L218.813 234.641Z" fill="#2951A7"/> <path opacity="0.6" d="M218.813 234.641C218.813 234.641 212.034 296.423 207.886 319.566C203.351 344.877 185.876 429.351 185.876 429.351H171.019C171.019 429.351 181.562 346.957 183.763 321.822C186.129 294.585 190.96 234.597 190.96 234.597L218.813 234.641Z" fill="#FAFAFA"/> <path d="M187.978 423.893C188.044 423.893 186.668 429.582 186.668 429.582H170.018L170.128 424.509L187.978 423.893Z" fill="#2951A7"/> <path opacity="0.1" d="M187.978 423.893C188.044 423.893 186.668 429.582 186.668 429.582H170.018L170.128 424.509L187.978 423.893Z" fill="#FAFAFA"/> <path d="M213.872 256.651C203.34 258.731 205.993 298.293 208.051 318.642C210.56 304.258 213.971 276.581 216.271 256.937C215.527 256.574 214.681 256.473 213.872 256.651Z" fill="#2951A7"/> <path opacity="0.4" d="M213.872 256.651C203.34 258.731 205.993 298.293 208.051 318.642C210.56 304.258 213.971 276.581 216.271 256.937C215.527 256.574 214.681 256.473 213.872 256.651Z" fill="#FAFAFA"/> <path d="M234.154 234.641C234.154 234.641 237.61 295.08 237.676 319.742C237.753 345.384 232.041 429.351 232.041 429.351H218.34C218.34 429.351 214.654 346.88 213.069 321.701C211.352 294.244 205.729 234.641 205.729 234.641H234.154Z" fill="#2951A7"/> <path opacity="0.6" d="M234.154 234.641C234.154 234.641 237.61 295.08 237.676 319.742C237.753 345.384 232.041 429.351 232.041 429.351H218.34C218.34 429.351 214.654 346.88 213.069 321.701C211.352 294.244 205.729 234.641 205.729 234.641H234.154Z" fill="#FAFAFA"/> <path d="M237.467 226.871L233.626 227.18C233.313 227.206 233.01 227.301 232.739 227.459C232.468 227.618 232.235 227.834 232.058 228.093C231.881 228.353 231.764 228.648 231.715 228.958C231.667 229.269 231.688 229.586 231.777 229.887L233.362 235.224C233.496 235.658 233.732 236.053 234.052 236.375C234.371 236.698 234.763 236.939 235.195 237.077C235.628 237.215 236.087 237.247 236.534 237.17C236.981 237.092 237.403 236.908 237.764 236.633C239.748 234.786 241.171 232.417 241.869 229.799L237.467 226.871Z" fill="#E4897B"/> <path d="M228.795 419.513C228.758 419.507 228.724 419.489 228.7 419.461C228.676 419.432 228.662 419.396 228.663 419.359C230.182 396.127 233.703 339.903 233.637 319.742C233.637 299.108 231.128 252.953 230.336 239.296C230.334 239.278 230.336 239.259 230.342 239.242C230.348 239.225 230.358 239.209 230.37 239.195C230.383 239.182 230.398 239.171 230.414 239.164C230.431 239.157 230.449 239.153 230.468 239.153C230.504 239.153 230.539 239.166 230.565 239.191C230.592 239.215 230.608 239.249 230.611 239.285C231.359 252.942 233.813 299.097 233.912 319.742C233.978 339.914 230.457 396.138 228.938 419.381C228.938 419.399 228.934 419.417 228.927 419.434C228.92 419.451 228.909 419.466 228.896 419.478C228.882 419.491 228.866 419.5 228.849 419.506C228.832 419.512 228.813 419.514 228.795 419.513Z" fill="#2951A7"/> <path opacity="0.3" d="M228.795 419.513C228.758 419.507 228.724 419.489 228.7 419.461C228.676 419.432 228.662 419.396 228.663 419.359C230.182 396.127 233.703 339.903 233.637 319.742C233.637 299.108 231.128 252.953 230.336 239.296C230.334 239.278 230.336 239.259 230.342 239.242C230.348 239.225 230.358 239.209 230.37 239.195C230.383 239.182 230.398 239.171 230.414 239.164C230.431 239.157 230.449 239.153 230.468 239.153C230.504 239.153 230.539 239.166 230.565 239.191C230.592 239.215 230.608 239.249 230.611 239.285C231.359 252.942 233.813 299.097 233.912 319.742C233.978 339.914 230.457 396.138 228.938 419.381C228.938 419.399 228.934 419.417 228.927 419.434C228.92 419.451 228.909 419.466 228.896 419.478C228.882 419.491 228.866 419.5 228.849 419.506C228.832 419.512 228.813 419.514 228.795 419.513Z" fill="#FAFAFA"/> <path d="M234.462 423.893C234.528 423.893 233.912 429.582 233.912 429.582H217.251L216.601 424.509L234.462 423.893Z" fill="#2951A7"/> <path opacity="0.1" d="M234.462 423.893C234.528 423.893 233.912 429.582 233.912 429.582H217.251L216.601 424.509L234.462 423.893Z" fill="#FAFAFA"/> </svg>
