<svg width="586" height="627" viewBox="0 0 586 627" fill="none" xmlns="http://www.w3.org/2000/svg"> <path fill-rule="evenodd" clip-rule="evenodd" d="M305.763 1.22502C397.62 -9.83156 480.885 55.8364 537.135 122.358C586.827 181.126 588.249 257.465 584.911 331.353C581.758 401.154 569.18 470.807 518.993 523.96C464.615 581.551 389.559 627.423 305.763 626.997C222.299 626.573 151.828 576.957 94.9182 521.806C40.3537 468.927 -6.27387 403.365 0.692161 331.353C7.28186 263.231 80.2922 224.004 128.804 171.508C186.219 109.378 216.952 11.915 305.763 1.22502Z" fill="#2951A7"/> <path d="M298 491.248C418.789 491.248 516.708 485.531 516.708 478.479C516.708 471.427 418.789 465.71 298 465.71C177.211 465.71 79.2921 471.427 79.2921 478.479C79.2921 485.531 177.211 491.248 298 491.248Z" fill="#F5F5F5"/> <path d="M363.165 144.207C362.247 141.176 361.031 138.244 359.532 135.454L361.788 128.065L347.203 113.469L339.815 115.725C337.025 114.227 334.093 113.01 331.062 112.093L327.43 105.325H306.787L303.166 112.093C300.134 113.008 297.202 114.225 294.413 115.725L287.025 113.469L272.428 128.065L274.684 135.454C273.195 138.247 271.982 141.178 271.063 144.207L264.239 147.839V168.482L271.063 172.103C271.98 175.132 273.192 178.064 274.684 180.856L272.428 188.244L287.025 202.841L294.413 200.585C297.205 202.076 300.137 203.289 303.166 204.205L306.787 210.973H327.43L331.062 204.205C334.091 203.287 337.022 202.074 339.815 200.585L347.203 202.841L361.8 188.244L359.544 180.856C361.044 178.067 362.261 175.134 363.176 172.103L370 168.482V147.839L363.165 144.207ZM317.108 187.477C311.308 187.477 305.638 185.757 300.815 182.535C295.992 179.312 292.233 174.732 290.013 169.373C287.793 164.014 287.212 158.117 288.344 152.428C289.475 146.739 292.269 141.513 296.37 137.411C300.472 133.31 305.698 130.516 311.387 129.385C317.076 128.253 322.973 128.834 328.332 131.054C333.691 133.273 338.271 137.033 341.494 141.855C344.716 146.678 346.436 152.349 346.436 158.149C346.436 165.928 343.346 173.387 337.846 178.887C332.346 184.387 324.887 187.477 317.108 187.477Z" fill="#FECC18"/> <path opacity="0.2" d="M363.165 144.207C362.247 141.176 361.031 138.244 359.532 135.454L361.788 128.065L347.203 113.469L339.815 115.725C337.025 114.227 334.093 113.01 331.062 112.093L327.43 105.325H306.787L303.166 112.093C300.134 113.008 297.202 114.225 294.413 115.725L287.025 113.469L272.428 128.065L274.684 135.454C273.195 138.247 271.982 141.178 271.063 144.207L264.239 147.839V168.482L271.063 172.103C271.98 175.132 273.192 178.064 274.684 180.856L272.428 188.244L287.025 202.841L294.413 200.585C297.205 202.076 300.137 203.289 303.166 204.205L306.787 210.973H327.43L331.062 204.205C334.091 203.287 337.022 202.074 339.815 200.585L347.203 202.841L361.8 188.244L359.544 180.856C361.044 178.067 362.261 175.134 363.176 172.103L370 168.482V147.839L363.165 144.207ZM317.108 187.477C311.308 187.477 305.638 185.757 300.815 182.535C295.992 179.312 292.233 174.732 290.013 169.373C287.793 164.014 287.212 158.117 288.344 152.428C289.475 146.739 292.269 141.513 296.37 137.411C300.472 133.31 305.698 130.516 311.387 129.385C317.076 128.253 322.973 128.834 328.332 131.054C333.691 133.273 338.271 137.033 341.494 141.855C344.716 146.678 346.436 152.349 346.436 158.149C346.436 165.928 343.346 173.387 337.846 178.887C332.346 184.387 324.887 187.477 317.108 187.477Z" fill="white"/> <path d="M317.108 148.437C315.185 148.437 313.305 149.008 311.706 150.076C310.107 151.144 308.861 152.663 308.125 154.44C307.389 156.216 307.197 158.171 307.572 160.058C307.947 161.944 308.873 163.676 310.233 165.036C311.593 166.396 313.325 167.322 315.211 167.697C317.098 168.072 319.053 167.88 320.829 167.144C322.606 166.408 324.125 165.162 325.193 163.563C326.261 161.964 326.832 160.084 326.832 158.161C326.832 155.582 325.807 153.109 323.984 151.285C322.16 149.462 319.687 148.437 317.108 148.437Z" fill="#FECC18"/> <path d="M510.064 176.953C508.753 172.62 507.019 168.426 504.886 164.432L508.113 153.874L487.278 133.04L476.709 136.277C472.73 134.12 468.537 132.382 464.2 131.089L459.022 121.343H429.525L424.336 131.089C420 132.386 415.808 134.124 411.826 136.277L401.268 133.04L380.412 153.897L383.638 164.455C381.496 168.444 379.761 172.639 378.46 176.976L368.703 182.153V211.65L378.449 216.839C379.748 221.173 381.483 225.364 383.626 229.349L380.4 239.895L401.257 260.752L411.815 257.526C415.801 259.672 419.997 261.403 424.336 262.692L429.525 272.45H459.022L464.2 262.704C468.534 261.401 472.725 259.662 476.709 257.515L487.278 260.741L508.135 239.884L504.909 229.326C507.036 225.336 508.762 221.146 510.064 216.817L519.81 211.628V182.131L510.064 176.953ZM444.268 250.352C433.691 250.352 423.351 247.216 414.557 241.339C405.762 235.463 398.908 227.111 394.86 217.339C390.812 207.567 389.753 196.814 391.817 186.44C393.88 176.067 398.974 166.538 406.453 159.059C413.932 151.579 423.461 146.486 433.835 144.423C444.208 142.359 454.961 143.418 464.733 147.466C474.505 151.514 482.857 158.368 488.733 167.162C494.61 175.957 497.746 186.296 497.746 196.874C497.746 203.896 496.363 210.851 493.675 217.339C490.988 223.827 487.049 229.723 482.083 234.689C477.117 239.654 471.221 243.594 464.733 246.281C458.245 248.969 451.291 250.352 444.268 250.352Z" fill="#FECC18"/> <path d="M444.268 150.896C435.173 150.898 426.282 153.598 418.721 158.652C411.16 163.707 405.267 170.89 401.788 179.294C398.309 187.697 397.4 196.943 399.176 205.864C400.951 214.784 405.332 222.977 411.764 229.408C418.196 235.838 426.391 240.217 435.311 241.991C444.232 243.764 453.478 242.853 461.881 239.372C470.283 235.891 477.465 229.996 482.518 222.434C487.571 214.871 490.268 205.98 490.268 196.885C490.253 184.691 485.401 173 476.777 164.378C468.154 155.757 456.462 150.908 444.268 150.896ZM444.268 236.748C436.383 236.751 428.675 234.414 422.118 230.036C415.561 225.657 410.45 219.432 407.431 212.148C404.412 204.864 403.621 196.848 405.158 189.115C406.694 181.381 410.49 174.277 416.065 168.701C421.639 163.125 428.742 159.327 436.475 157.788C444.208 156.249 452.224 157.038 459.509 160.055C466.794 163.071 473.02 168.181 477.401 174.737C481.782 181.292 484.12 189 484.12 196.885C484.108 207.452 479.906 217.582 472.435 225.055C464.964 232.528 454.835 236.733 444.268 236.748Z" fill="#FECC18"/> <path opacity="0.2" d="M444.268 150.896C435.173 150.898 426.282 153.598 418.721 158.652C411.16 163.707 405.267 170.89 401.788 179.294C398.309 187.697 397.4 196.943 399.176 205.864C400.951 214.784 405.332 222.977 411.764 229.408C418.196 235.838 426.391 240.217 435.311 241.991C444.232 243.764 453.478 242.853 461.881 239.372C470.283 235.891 477.465 229.996 482.518 222.434C487.571 214.871 490.268 205.98 490.268 196.885C490.253 184.691 485.401 173 476.777 164.378C468.154 155.757 456.462 150.908 444.268 150.896ZM444.268 236.748C436.383 236.751 428.675 234.414 422.118 230.036C415.561 225.657 410.45 219.432 407.431 212.148C404.412 204.864 403.621 196.848 405.158 189.115C406.694 181.381 410.49 174.277 416.065 168.701C421.639 163.125 428.742 159.327 436.475 157.788C444.208 156.249 452.224 157.038 459.509 160.055C466.794 163.071 473.02 168.181 477.401 174.737C481.782 181.292 484.12 189 484.12 196.885C484.108 207.452 479.906 217.582 472.435 225.055C464.964 232.528 454.835 236.733 444.268 236.748Z" fill="black"/> <path d="M338.608 275.349C338.309 275.349 338.022 275.23 337.81 275.018C337.599 274.807 337.48 274.52 337.48 274.221V271.965C337.48 271.665 337.599 271.378 337.81 271.167C338.022 270.955 338.309 270.837 338.608 270.837C338.907 270.837 339.194 270.955 339.406 271.167C339.617 271.378 339.736 271.665 339.736 271.965V274.221C339.736 274.52 339.617 274.807 339.406 275.018C339.194 275.23 338.907 275.349 338.608 275.349Z" fill="#FECC18"/> <path d="M321.045 246.201C320.009 245.535 319.199 244.572 318.721 243.437C318.603 243.162 318.381 242.945 318.102 242.834C317.824 242.723 317.513 242.727 317.238 242.845C316.963 242.963 316.746 243.186 316.635 243.464C316.524 243.742 316.528 244.053 316.646 244.328C317.308 245.869 318.411 247.18 319.816 248.096C319.997 248.213 320.209 248.276 320.425 248.276C320.669 248.278 320.907 248.201 321.103 248.056C321.3 247.911 321.444 247.706 321.514 247.472C321.584 247.238 321.576 246.987 321.491 246.758C321.407 246.529 321.25 246.333 321.045 246.201Z" fill="#FECC18"/> <path d="M317.108 232.112C317.407 232.112 317.694 231.993 317.906 231.782C318.117 231.57 318.236 231.283 318.236 230.984V226.664C318.236 226.365 318.117 226.078 317.906 225.866C317.694 225.655 317.407 225.536 317.108 225.536C316.809 225.536 316.522 225.655 316.311 225.866C316.099 226.078 315.98 226.365 315.98 226.664V230.984C315.98 231.283 316.099 231.57 316.311 231.782C316.522 231.993 316.809 232.112 317.108 232.112Z" fill="#FECC18"/> <path d="M328.851 247.194H324.519C324.22 247.194 323.933 247.312 323.722 247.524C323.51 247.736 323.391 248.022 323.391 248.322C323.391 248.621 323.51 248.908 323.722 249.119C323.933 249.331 324.22 249.45 324.519 249.45H328.851C329.15 249.45 329.437 249.331 329.648 249.119C329.86 248.908 329.979 248.621 329.979 248.322C329.979 248.022 329.86 247.736 329.648 247.524C329.437 247.312 329.15 247.194 328.851 247.194Z" fill="#FECC18"/> <path d="M318.236 239.636V235.316C318.236 235.017 318.117 234.73 317.906 234.518C317.694 234.307 317.407 234.188 317.108 234.188C316.809 234.188 316.522 234.307 316.311 234.518C316.099 234.73 315.98 235.017 315.98 235.316V239.636C315.98 239.935 316.099 240.222 316.311 240.434C316.522 240.645 316.809 240.764 317.108 240.764C317.407 240.764 317.694 240.645 317.906 240.434C318.117 240.222 318.236 239.935 318.236 239.636Z" fill="#FECC18"/> <path d="M339.668 254.526C339.629 254.23 339.474 253.961 339.237 253.779C339 253.598 338.701 253.517 338.405 253.556C338.258 253.58 338.117 253.634 337.991 253.713C337.865 253.792 337.756 253.895 337.67 254.017C337.584 254.139 337.523 254.276 337.49 254.422C337.458 254.567 337.454 254.717 337.48 254.864C337.516 255.126 337.535 255.389 337.536 255.654V259.038C337.536 259.337 337.655 259.624 337.867 259.835C338.078 260.047 338.365 260.166 338.664 260.166C338.964 260.166 339.25 260.047 339.462 259.835C339.674 259.624 339.792 259.337 339.792 259.038V255.654C339.776 255.275 339.734 254.899 339.668 254.526Z" fill="#FECC18"/> <path d="M338.608 262.185C338.309 262.185 338.022 262.304 337.81 262.515C337.599 262.727 337.48 263.014 337.48 263.313V267.644C337.48 267.943 337.599 268.23 337.81 268.442C338.022 268.653 338.309 268.772 338.608 268.772C338.907 268.772 339.194 268.653 339.406 268.442C339.617 268.23 339.736 267.943 339.736 267.644V263.313C339.736 263.014 339.617 262.727 339.406 262.515C339.194 262.304 338.907 262.185 338.608 262.185Z" fill="#FECC18"/> <path d="M337.627 250.047C336.522 248.786 335.064 247.886 333.442 247.464C333.298 247.427 333.149 247.419 333.002 247.44C332.855 247.46 332.713 247.51 332.586 247.585C332.458 247.661 332.346 247.761 332.257 247.879C332.168 247.998 332.103 248.133 332.066 248.277C332.029 248.42 332.02 248.57 332.041 248.717C332.062 248.864 332.111 249.005 332.187 249.133C332.262 249.261 332.362 249.372 332.481 249.461C332.599 249.551 332.734 249.616 332.878 249.653C334.063 249.959 335.129 250.615 335.935 251.536C336.04 251.657 336.17 251.753 336.316 251.819C336.462 251.885 336.621 251.92 336.781 251.92C336.997 251.92 337.21 251.857 337.392 251.739C337.574 251.622 337.718 251.454 337.807 251.256C337.896 251.059 337.927 250.84 337.895 250.625C337.863 250.411 337.77 250.21 337.627 250.047Z" fill="#FECC18"/> <path d="M317.108 223.415C316.809 223.415 316.522 223.297 316.311 223.085C316.099 222.873 315.98 222.587 315.98 222.287V220.031C315.98 219.732 316.099 219.445 316.311 219.234C316.522 219.022 316.809 218.903 317.108 218.903C317.407 218.903 317.694 219.022 317.906 219.234C318.117 219.445 318.236 219.732 318.236 220.031V222.287C318.236 222.587 318.117 222.873 317.906 223.085C317.694 223.297 317.407 223.415 317.108 223.415Z" fill="#FECC18"/> <path d="M392.041 332.143H130.864V336.328H392.041V332.143Z" fill="#FECC18"/> <path d="M392.041 336.328H448.712V332.143H392.041V336.328Z" fill="#FECC18"/> <path opacity="0.2" d="M392.041 336.328H448.712V332.143H392.041V336.328Z" fill="black"/> <path d="M429.784 340.806H149.792L140.43 336.328H439.147L429.784 340.806Z" fill="#FECC18"/> <path opacity="0.6" d="M429.784 340.806H149.792L140.43 336.328H439.147L429.784 340.806Z" fill="white"/> <path d="M158.252 340.806V474.294H161.839L166.351 340.806H158.252Z" fill="#FECC18"/> <path d="M200.597 340.806V474.294H204.184L208.696 340.806H200.597Z" fill="#FECC18"/> <path d="M429.784 340.806V474.294H426.209L421.685 340.806H429.784Z" fill="#FECC18"/> <path d="M387.45 340.806V474.294H383.863L379.351 340.806H387.45Z" fill="#FECC18"/> <path d="M302.219 281.474L290.431 329.492L290.104 332.143H371.41L371.749 329.492L383.525 281.474H302.219Z" fill="#FECC18"/> <path opacity="0.3" d="M302.219 281.474L290.431 329.492L290.104 332.143H371.41L371.749 329.492L383.525 281.474H302.219Z" fill="black"/> <path d="M381.032 281.474H299.715L287.938 329.492H369.245L381.032 281.474Z" fill="#FECC18"/> <path d="M367.519 327.293L378.235 283.673H301.44L290.736 327.293H367.519Z" fill="white"/> <path d="M348.061 329.492L347.722 332.143H258.193L258.52 329.492H348.061Z" fill="#FECC18"/> <path opacity="0.6" d="M348.061 329.492L347.722 332.143H258.193L258.52 329.492H348.061Z" fill="white"/> <path d="M178.928 323.413C178.872 321.694 178.199 320.054 177.033 318.791C175.867 317.527 174.286 316.726 172.578 316.532V315.235C172.576 315.159 172.56 315.085 172.529 315.017C172.499 314.948 172.455 314.886 172.401 314.835C172.346 314.783 172.282 314.743 172.211 314.717C172.141 314.691 172.066 314.679 171.991 314.682H159.809C159.733 314.679 159.658 314.691 159.587 314.717C159.516 314.743 159.451 314.783 159.395 314.834C159.34 314.886 159.295 314.947 159.263 315.016C159.232 315.085 159.214 315.159 159.211 315.235V332.155H172.578V330.305C174.289 330.113 175.873 329.31 177.039 328.044C178.206 326.778 178.877 325.133 178.928 323.413ZM172.578 328.116V318.72C173.705 318.886 174.735 319.452 175.48 320.315C176.224 321.177 176.634 322.279 176.634 323.418C176.634 324.558 176.224 325.659 175.48 326.522C174.735 327.384 173.705 327.95 172.578 328.116Z" fill="#FECC18"/> <path d="M406.92 332.143H418.245L414.895 307.339H406.92V332.143Z" fill="#263238"/> <path d="M390.316 332.143H411.77L415.752 303.109H394.309L390.316 332.143Z" fill="#FECC18"/> <path opacity="0.3" d="M390.316 332.143H411.77L415.752 303.109H394.309L390.316 332.143Z" fill="black"/> <path d="M387.45 332.143H409.774L413.767 303.109H391.444L387.45 332.143Z" fill="#FECC18"/> <path opacity="0.4" d="M407.8 329.853L411.161 305.398H393.418L390.056 329.853H407.8Z" fill="white"/> <path d="M238.825 289.279L237.9 290.272L236.908 291.4C236.242 292.167 235.577 292.945 234.945 293.746C233.681 295.348 232.463 296.984 231.324 298.664C229.057 301.915 227.165 305.411 225.684 309.087C224.994 310.834 224.458 312.638 224.082 314.479C223.902 315.517 223.789 315.968 223.733 316.408C223.67 316.758 223.67 317.117 223.733 317.468C223.922 318.019 224.218 318.528 224.606 318.963C224.993 319.399 225.463 319.754 225.989 320.006C226.75 320.475 227.55 320.879 228.38 321.213C228.816 321.393 229.267 321.563 229.733 321.721C230.162 321.878 230.704 322.036 231.042 322.172V328.387C230.252 328.5 229.677 328.59 229.012 328.635C228.346 328.68 227.703 328.692 227.038 328.635C225.669 328.608 224.308 328.434 222.977 328.116C221.477 327.764 220.039 327.186 218.713 326.402C217.153 325.489 215.813 324.246 214.787 322.758C213.731 321.175 213.031 319.382 212.735 317.502C212.659 317.061 212.61 316.617 212.588 316.171C212.566 315.742 212.566 315.313 212.588 314.885V314.253C212.575 314.084 212.575 313.915 212.588 313.746L212.678 312.753C212.967 310.175 213.511 307.632 214.302 305.162C215.83 300.416 217.981 295.895 220.698 291.716C222.004 289.664 223.424 287.687 224.951 285.794C225.707 284.846 226.485 283.921 227.297 283.008C227.692 282.545 228.109 282.094 228.538 281.643C228.966 281.192 229.361 280.797 229.948 280.233L238.825 289.279Z" fill="#B55B52"/> <path d="M228.797 322.036L234.054 318.179L237.043 328.985C237.043 328.985 232.384 330.711 228.831 328.387L228.797 322.036Z" fill="#B55B52"/> <path d="M241.352 315.584L243.405 324.631L237.043 328.985L234.054 318.179L241.352 315.584Z" fill="#B55B52"/> <path d="M274.594 247.814C274.357 248.479 274.526 249.145 274.966 249.292C275.406 249.438 275.948 249.032 276.173 248.367C276.399 247.701 276.241 247.024 275.812 246.878C275.384 246.731 274.831 247.137 274.594 247.814Z" fill="#263238"/> <path d="M274.47 249.122C274.558 251.445 274.964 253.745 275.677 255.958C275.109 256.121 274.512 256.159 273.928 256.069C273.344 255.98 272.786 255.765 272.293 255.439L274.47 249.122Z" fill="#A02724"/> <path d="M273.511 243.279C273.595 243.308 273.686 243.308 273.771 243.279C274.265 243.114 274.793 243.069 275.308 243.148C275.824 243.226 276.314 243.426 276.737 243.731C276.822 243.792 276.927 243.819 277.031 243.807C277.135 243.795 277.231 243.744 277.299 243.664C277.367 243.585 277.403 243.482 277.399 243.378C277.396 243.273 277.352 243.173 277.279 243.099C276.749 242.704 276.133 242.442 275.481 242.334C274.83 242.226 274.162 242.276 273.534 242.479C273.451 242.507 273.38 242.56 273.329 242.631C273.279 242.701 273.252 242.786 273.252 242.873C273.252 242.96 273.279 243.045 273.329 243.116C273.38 243.187 273.451 243.24 273.534 243.268L273.511 243.279Z" fill="#263238"/> <path d="M249.857 250.273C251.12 256.691 252.372 268.456 247.883 272.743C247.883 272.743 249.643 279.251 261.577 279.251C274.696 279.251 267.849 272.743 267.849 272.743C260.686 271.028 260.866 265.715 262.118 260.73L249.857 250.273Z" fill="#B55B52"/> <path d="M246.168 274.976C245.221 272.912 244.194 270.554 246.326 269.821C248.684 269.009 261.588 268.174 266.033 269.697C266.62 269.857 267.17 270.133 267.65 270.507C268.13 270.882 268.53 271.349 268.827 271.881C269.124 272.412 269.313 272.998 269.381 273.603C269.449 274.208 269.396 274.821 269.225 275.405L246.168 274.976Z" fill="#263238"/> <path d="M291.232 285.985C293.996 290.96 296.962 296.081 299.963 300.999C302.963 305.917 306.11 310.813 309.472 315.28C310.307 316.408 311.175 317.479 312.032 318.551C312.461 319.104 312.912 319.555 313.352 320.062L314.006 320.807L314.176 320.999L314.255 321.089L314.334 321.19C314.859 321.699 315.491 322.084 316.183 322.318C317.25 322.689 318.349 322.958 319.466 323.119C324.949 323.673 330.477 323.608 335.946 322.927L337.661 328.906C336.138 329.583 334.716 330.034 333.205 330.598C331.693 331.162 330.204 331.534 328.693 331.918C325.489 332.721 322.204 333.16 318.902 333.226C317.048 333.256 315.197 333.071 313.386 332.673C311.163 332.232 309.066 331.299 307.25 329.944L306.494 329.323L306.313 329.165L306.201 329.053L305.986 328.838L305.106 327.97C304.531 327.394 303.9 326.842 303.381 326.233C302.253 325.048 301.192 323.864 300.211 322.645C296.27 317.883 292.634 312.876 289.326 307.654C287.679 305.083 286.092 302.484 284.566 299.86C283.032 297.209 281.554 294.615 280.121 291.817L291.232 285.985Z" fill="#B55B52"/> <path d="M232.17 274.728C223.936 276.612 214.505 299.048 214.505 299.048L231.031 310.328C235.141 304.434 238.788 298.23 241.938 291.772C246.823 281.552 240.585 272.799 232.17 274.728Z" fill="#FECC18"/> <path opacity="0.2" d="M238.058 289.031L230.252 309.831L231.019 310.373C231.019 310.373 234.403 305.624 238.058 299.217V289.031Z" fill="black"/> <path d="M281.351 275.168C281.351 275.168 290.691 285.726 281.87 351.037H234.911C234.595 343.829 239.118 308.681 232.17 274.717C237.359 273.718 242.608 273.054 247.883 272.732C254.533 272.342 261.199 272.342 267.849 272.732C272.406 273.19 276.92 274.005 281.351 275.168Z" fill="#FECC18"/> <path opacity="0.2" d="M276.128 294.062C277.353 301.475 280.557 308.419 285.4 314.163C285.592 309.956 285.671 306.177 285.66 302.804L276.128 294.062Z" fill="black"/> <path d="M272.056 282.297C270.928 290.61 287.284 311.839 287.284 311.839L303.742 300.559C303.742 300.559 299.173 288.862 291.491 281.192C282.738 272.393 273.342 273.25 272.056 282.297Z" fill="#FECC18"/> <path d="M334.096 322.984L340.796 320.232L347.688 325.443C347.688 325.443 341.112 331.263 335.134 328.996L334.096 322.984Z" fill="#B55B52"/> <path d="M345.218 319.961L350.272 323.57L347.655 325.443L340.763 320.232L345.218 319.961Z" fill="#B55B52"/> <path d="M252.779 238.632C250.432 247.024 248.627 251.818 251.312 257.47C255.339 265.986 266.788 265.749 271.616 258.237C275.948 251.469 279.061 238.88 272.158 232.823C270.642 231.477 268.807 230.54 266.828 230.103C264.848 229.665 262.79 229.741 260.848 230.323C258.906 230.905 257.145 231.974 255.733 233.428C254.321 234.883 253.304 236.674 252.779 238.632Z" fill="#B55B52"/> <path d="M270.646 238.722C267.262 248.355 263.28 258.936 253.557 256.928C247.285 255.631 246.789 245.535 244.533 240.944C242.536 236.917 242.66 228.818 246.789 228.717C244.939 226.032 254.29 216.207 260.675 221.396C262.31 219.14 274.098 212.496 282.828 223.043C291.052 233.015 287.025 241.328 270.646 238.722Z" fill="#263238"/> <path d="M263.032 244.881C262.806 247.033 263.289 249.2 264.408 251.051C265.908 253.465 268.108 252.54 268.92 250.07C269.642 247.814 269.721 243.922 267.634 242.354C265.547 240.787 263.348 242.287 263.032 244.881Z" fill="#B55B52"/> <path d="M335.089 467.921C336.217 467.921 337.345 467.763 337.672 467.255C337.765 467.121 337.815 466.962 337.815 466.798C337.815 466.635 337.765 466.476 337.672 466.341C337.522 466.104 337.288 465.931 337.018 465.856C335.551 465.462 332.506 467.21 332.359 467.289C332.32 467.308 332.289 467.34 332.271 467.379C332.253 467.417 332.248 467.461 332.257 467.503C332.265 467.544 332.284 467.581 332.312 467.611C332.34 467.641 332.376 467.662 332.415 467.672C333.297 467.833 334.192 467.916 335.089 467.921ZM336.487 466.217C336.618 466.199 336.751 466.199 336.882 466.217C336.967 466.233 337.048 466.268 337.118 466.318C337.188 466.369 337.246 466.435 337.288 466.511C337.435 466.77 337.39 466.894 337.288 466.962C336.882 467.537 334.66 467.548 333.024 467.311C334.097 466.726 335.273 466.354 336.487 466.217Z" fill="#FECC18"/> <path d="M332.438 467.672H332.528C333.588 467.199 335.687 465.304 335.517 464.288C335.517 464.052 335.314 463.77 334.75 463.702C334.548 463.684 334.344 463.707 334.15 463.769C333.956 463.831 333.777 463.931 333.622 464.063C332.494 464.977 332.269 467.345 332.257 467.447C332.253 467.483 332.258 467.519 332.272 467.553C332.286 467.586 332.308 467.616 332.336 467.639C332.368 467.657 332.402 467.668 332.438 467.672ZM334.581 464.119H334.705C335.077 464.119 335.1 464.311 335.111 464.356C335.213 464.954 333.78 466.443 332.697 467.086C332.787 466.093 333.181 465.151 333.825 464.39C334.036 464.21 334.304 464.114 334.581 464.119Z" fill="#FECC18"/> <path d="M322.229 467.469H331.005L333.002 447.132H324.226L322.229 467.469Z" fill="#B55B52"/> <path d="M331.502 466.454H321.925C321.748 466.455 321.578 466.516 321.44 466.627C321.303 466.737 321.207 466.891 321.169 467.063L319.432 474.824C319.387 475.013 319.386 475.21 319.429 475.399C319.472 475.589 319.558 475.766 319.68 475.917C319.802 476.069 319.957 476.19 320.133 476.272C320.309 476.354 320.501 476.395 320.695 476.392C324.147 476.336 329.144 476.132 333.487 476.132C338.574 476.132 342.962 476.403 348.918 476.403C352.528 476.403 353.531 472.76 352.02 472.433C345.15 470.932 339.544 470.774 333.611 467.108C332.982 466.7 332.252 466.474 331.502 466.454Z" fill="#263238"/> <path opacity="0.2" d="M332.991 447.143L331.975 457.622H323.188L324.215 447.143H332.991Z" fill="black"/> <path d="M299.906 467.909C300.279 467.958 300.657 467.932 301.019 467.834C301.381 467.735 301.72 467.565 302.016 467.334C302.119 467.191 302.175 467.02 302.175 466.843C302.175 466.667 302.119 466.495 302.016 466.353C301.949 466.229 301.856 466.121 301.743 466.037C301.63 465.953 301.499 465.896 301.361 465.868C300.076 465.563 297.65 467.221 297.549 467.289C297.517 467.314 297.491 467.347 297.476 467.384C297.46 467.422 297.454 467.463 297.459 467.503C297.467 467.542 297.486 467.578 297.514 467.606C297.542 467.634 297.578 467.653 297.617 467.661C298.369 467.825 299.136 467.908 299.906 467.909ZM301.034 466.24C301.117 466.228 301.2 466.228 301.283 466.24C301.363 466.252 301.44 466.282 301.507 466.329C301.573 466.376 301.628 466.439 301.666 466.511C301.858 466.86 301.745 466.996 301.666 467.052C301.294 467.537 299.5 467.548 298.181 467.334C299.029 466.76 299.997 466.386 301.012 466.24H301.034Z" fill="#FECC18"/> <path d="M297.673 467.672H297.763C298.677 467.176 300.437 465.259 300.245 464.288C300.216 464.133 300.133 463.993 300.012 463.892C299.89 463.791 299.737 463.736 299.579 463.736C299.422 463.717 299.262 463.731 299.11 463.777C298.959 463.824 298.819 463.902 298.699 464.006C297.684 464.841 297.47 467.39 297.459 467.481C297.458 467.519 297.467 467.556 297.485 467.59C297.503 467.623 297.528 467.652 297.56 467.672C297.597 467.684 297.636 467.684 297.673 467.672ZM299.444 464.119H299.534C299.805 464.119 299.827 464.277 299.839 464.334C299.952 464.909 298.824 466.364 297.921 467.052C297.982 466.051 298.343 465.092 298.959 464.3C299.094 464.184 299.266 464.12 299.444 464.119Z" fill="#FECC18"/> <path d="M287.611 467.469H296.387L300.797 447.132H292.022L287.611 467.469Z" fill="#B55B52"/> <path d="M297.007 466.454H287.149C286.974 466.456 286.805 466.517 286.669 466.628C286.534 466.738 286.44 466.892 286.404 467.063L284.667 474.824C284.626 475.015 284.629 475.212 284.675 475.401C284.721 475.59 284.809 475.767 284.933 475.917C285.056 476.068 285.212 476.189 285.389 476.271C285.565 476.353 285.758 476.395 285.953 476.392C289.393 476.336 291.074 476.133 295.406 476.133C298.079 476.133 301.497 476.403 305.185 476.403C308.874 476.403 309.348 472.76 307.836 472.433C301.068 470.955 300.606 468.913 298.44 466.962C298.04 466.623 297.531 466.443 297.007 466.454Z" fill="#263238"/> <g opacity="0.2"> <path opacity="0.2" d="M292.022 447.143H300.797L298.519 457.622H289.743L292.022 447.143Z" fill="black"/> </g> <path d="M281.87 351.049C281.87 351.049 347.632 358.008 346.91 391.555C346.444 412.623 342.393 433.458 334.931 453.166H321.891C321.891 453.166 322.557 431.881 322.117 397.533C321.981 387.235 301.192 383.839 280.877 382.644C272.274 382.103 263.994 379.169 256.97 374.172C249.946 369.175 244.458 362.315 241.126 354.365L239.739 351.049H281.87Z" fill="#263238"/> <path d="M338.123 449.67C338.191 449.67 337.277 455.84 337.277 455.84H319.229L318.733 450.335L338.123 449.67Z" fill="#FECC18"/> <path d="M267.792 351.049C267.792 351.049 315.461 366.841 316.668 386.423C318.924 422.451 301.204 453.166 301.204 453.166H288.04C288.04 453.166 293.037 437.938 294.808 405.294C297.064 364.291 220.552 405.226 234.888 351.049H267.792Z" fill="#263238"/> <path d="M305.185 449.67C305.253 449.67 303.527 455.84 303.527 455.84H285.479L285.806 450.335L305.185 449.67Z" fill="#FECC18"/> <path d="M302.174 385.588H228.854C228.854 383.368 229.735 381.239 231.305 379.67C232.875 378.1 235.004 377.218 237.223 377.218H293.804C296.024 377.218 298.153 378.1 299.722 379.67C301.292 381.239 302.174 383.368 302.174 385.588Z" fill="#FECC18"/> <path d="M232.249 385.577L221.195 478.253H223.563L237.584 385.577H232.249Z" fill="#FECC18"/> <path opacity="0.4" d="M232.249 385.577L221.195 478.253H223.563L237.584 385.577H232.249Z" fill="black"/> <path d="M247.037 385.577L246.823 478.253H249.18L252.372 385.577H247.037Z" fill="#FECC18"/> <path opacity="0.4" d="M247.037 385.577L246.823 478.253H249.18L252.372 385.577H247.037Z" fill="black"/> <path d="M298.778 385.577L309.833 478.253H307.464L293.454 385.577H298.778Z" fill="#FECC18"/> <path opacity="0.4" d="M298.778 385.577L309.833 478.253H307.464L293.454 385.577H298.778Z" fill="black"/> <path d="M283.99 385.577L284.205 478.253H281.847L278.655 385.577H283.99Z" fill="#FECC18"/> <path opacity="0.4" d="M283.99 385.577L284.205 478.253H281.847L278.655 385.577H283.99Z" fill="black"/> </svg>
