<svg xmlns="http://www.w3.org/2000/svg" viewBox="0 0 500 500">
    <g id="freepik--Character--inject-15">
        <polygon points="387.02 409.16 394.18 407.26 390.69 390.42 383.53 392.33 387.02 409.16"
            style="fill:#b55b52"></polygon>
        <path
            d="M394.41,405.94l-7.91,2.6a.53.53,0,0,0-.37.65l1.68,6.39a1.31,1.31,0,0,0,1.64.85c2.74-1,4-1.55,7.48-2.69,2.14-.71,7.32-2.3,10.27-3.27s1.92-3.86.58-3.72c-6,.66-9.51.13-12-.77A2.05,2.05,0,0,0,394.41,405.94Z"
            style="fill:#263238"></path>
        <polygon points="383.53 392.33 390.69 390.42 392.49 399.1 385.32 401.01 383.53 392.33"
            style="opacity:0.2"></polygon>
        <path
            d="M365.17,220.72s10,60.35,13,81.4c3.25,23.05,15.42,92.39,15.42,92.39l-12,4.54s-19.15-68.17-24.44-90.58c-5.75-24.33-18.41-87.75-18.41-87.75Z"
            style="fill:#263238"></path>
        <path
            d="M349.1,245.47c5.12,12.79,5.7,34.53,3.62,43.44-3.14-14.63-6.74-32.13-9.51-45.74C344.2,239.68,346,237.69,349.1,245.47Z"
            style="opacity:0.30000000000000004"></path>
        <polygon points="381.05 400.75 394.98 396.57 394.58 390.87 378 395.72 381.05 400.75"
            style="fill:#263238"></polygon>
        <path
            d="M397.31,406.35a9.51,9.51,0,0,1-2,.36.19.19,0,0,1-.17-.08.19.19,0,0,1,0-.19c.17-.23,1.72-2.25,2.69-2.2a.66.66,0,0,1,.53.34.94.94,0,0,1,.09,1A2,2,0,0,1,397.31,406.35Zm-1.59,0c1.35-.17,2.26-.51,2.48-.94a.64.64,0,0,0-.07-.63.32.32,0,0,0-.26-.17C397.35,404.56,396.37,405.54,395.72,406.33Z"
            style="fill:#FECC18"></path>
        <path
            d="M395.39,406.7a.11.11,0,0,1-.08,0,.17.17,0,0,1-.13-.1c0-.09-.86-2.06-.38-3a.91.91,0,0,1,.62-.46.66.66,0,0,1,.76.31c.42.71-.15,2.53-.71,3.17C395.44,406.68,395.42,406.7,395.39,406.7Zm0-3.17a.55.55,0,0,0-.3.26,3.84,3.84,0,0,0,.27,2.39,3.45,3.45,0,0,0,.5-2.53c-.05-.09-.14-.19-.39-.14Z"
            style="fill:#FECC18"></path>
        <path
            d="M363.65,158.59c.29.47.69,1.13,1.06,1.7l1.14,1.8c.79,1.19,1.57,2.38,2.4,3.55,1.63,2.33,3.35,4.59,5.13,6.74a60,60,0,0,0,5.62,5.93,30.19,30.19,0,0,0,6,4.36l-1.58-.45a16.29,16.29,0,0,0,4.71.27c.86-.08,1.74-.19,2.64-.35s1.81-.38,2.73-.63a48.13,48.13,0,0,0,5.57-1.89c.93-.38,1.86-.77,2.79-1.19s1.88-.89,2.69-1.27l.27-.13a3.25,3.25,0,0,1,4.33,1.52,3.28,3.28,0,0,1-.59,3.65c-.91.94-1.71,1.69-2.61,2.48s-1.8,1.49-2.75,2.19a43.65,43.65,0,0,1-6.12,3.74,33.54,33.54,0,0,1-7.09,2.61,31.31,31.31,0,0,1-4,.65,25.18,25.18,0,0,1-4.25,0,4.18,4.18,0,0,1-1.17-.29l-.4-.17A38.38,38.38,0,0,1,371,187.8a60.64,60.64,0,0,1-7.33-7,85.18,85.18,0,0,1-6.14-7.64q-1.41-2-2.72-4c-.43-.69-.86-1.37-1.28-2.08s-.8-1.37-1.26-2.23a6.49,6.49,0,0,1,11.29-6.42Z"
            style="fill:#263238"></path>
        <path
            d="M369.81,176.88c-3.9-8-10.55-7.54-13.23-5.07l.76,1.11a85.27,85.27,0,0,0,5.86,7.4,66.23,66.23,0,0,0,6.92,6.77c.78.64,1.59,1.27,2.41,1.87A32,32,0,0,0,369.81,176.88Z"
            style="opacity:0.30000000000000004"></path>
        <path
            d="M406.77,176l5-4.17,3,6.47s-7.45,5.33-9.16,3.45l-.2-2.41A3.93,3.93,0,0,1,406.77,176Z"
            style="fill:#b55b52"></path>
        <polygon points="418.44 172.62 420.01 177.62 414.73 178.27 411.75 171.8 418.44 172.62"
            style="fill:#b55b52"></polygon>
        <polygon points="324.38 408.92 331.79 408.92 332.75 391.75 325.34 391.75 324.38 408.92"
            style="fill:#b55b52"></polygon>
        <path
            d="M332.18,408.06h-8.33a.53.53,0,0,0-.55.51l-.41,6.59a1.32,1.32,0,0,0,1.3,1.32c2.9-.05,4.29-.22,7.95-.22,2.25,0,8.46.23,11.57.23s3-3.08,1.71-3.36c-5.92-1.24-9.87-3-12-4.61A2,2,0,0,0,332.18,408.06Z"
            style="fill:#263238"></path>
        <polygon points="325.34 391.76 332.75 391.76 332.25 400.61 324.84 400.61 325.34 391.76"
            style="opacity:0.2"></polygon>
        <path
            d="M350.69,220.72s-.64,64.41-1.84,85.64c-1.32,23.24-13.42,92.11-13.42,92.11H321.85s5.92-67,5.1-90c-.89-25-1.43-87.75-1.43-87.75Z"
            style="fill:#263238"></path>
        <polygon points="320.76 398.47 337.32 398.47 338.13 393.32 320.06 394.12 320.76 398.47"
            style="fill:#263238"></polygon>
        <path
            d="M334.8,409.35a9.5,9.5,0,0,1-2-.26.17.17,0,0,1-.06-.31c.24-.17,2.33-1.6,3.24-1.24a.64.64,0,0,1,.4.48,1,1,0,0,1-.21.94A2,2,0,0,1,334.8,409.35Zm-1.5-.51c1.33.26,2.31.22,2.65-.12a.62.62,0,0,0,.13-.62.3.3,0,0,0-.2-.24C335.4,407.67,334.16,408.29,333.3,408.84Z"
            style="fill:#FECC18"></path>
        <path
            d="M332.87,409.09a.11.11,0,0,1-.08,0,.16.16,0,0,1-.09-.14c0-.09-.18-2.22.57-2.94a.89.89,0,0,1,.73-.24.67.67,0,0,1,.63.52c.17.81-.94,2.36-1.67,2.8A.15.15,0,0,1,332.87,409.09Zm1-3a.53.53,0,0,0-.37.15,3.82,3.82,0,0,0-.49,2.35c.65-.54,1.38-1.72,1.27-2.25,0-.1-.08-.22-.33-.25Z"
            style="fill:#FECC18"></path>
        <path
            d="M362.05,160.49a7.21,7.21,0,0,0-5.47-5,45,45,0,0,0-5.55-.95,147.89,147.89,0,0,0-16.85,0c-2.94.14-5.94.5-8.33.85h-.09a4.73,4.73,0,0,0-4,5.5A232.84,232.84,0,0,1,325.45,191c.58,14.67-.21,26.19.07,29.73h39.65C367.58,184.92,364.47,168.65,362.05,160.49Z"
            style="fill:#e6e6e6"></path>
        <path
            d="M335.3,153.88c3.12,12.66,6,44.74,5.95,69.82H324.49c-.3-3.74.54-15.88-.07-31.35a247.72,247.72,0,0,0-3.85-31.69,5,5,0,0,1,4.18-5.8h.09c2.52-.37,5.68-.75,8.78-.9Z"
            style="fill:#263238"></path>
        <path
            d="M364.09,160.67a8.39,8.39,0,0,0-6-5.67,74.78,74.78,0,0,0-8-.82c3.17,11,9.39,44.51,7.54,69.52h10.58C370.72,186.17,366.45,167.53,364.09,160.67Z"
            style="fill:#263238"></path>
        <polygon points="425.89 195.34 347 229.1 337.52 207.06 416.42 173.3 425.89 195.34"
            style="fill:#FECC18"></polygon>
        <path d="M359.31,208.15a4.61,4.61,0,1,1-6.06-2.42A4.61,4.61,0,0,1,359.31,208.15Z"
            style="fill:#fff"></path>
        <path
            d="M361.3,212.05a6.56,6.56,0,0,1-9,3.86,6,6,0,0,0-1.14,6l15.3-6.54A6,6,0,0,0,361.3,212.05Z"
            style="fill:#fff"></path>
        <polygon points="414.67 185.48 368.56 205.21 367.52 202.77 413.63 183.04 414.67 185.48"
            style="fill:#fff"></polygon>
        <polygon points="411.24 193.07 370.79 210.38 369.74 207.94 410.19 190.63 411.24 193.07"
            style="fill:#fff"></polygon>
        <path
            d="M329.67,173.5c-.28-8.41-6.49-11.62-8.24-9.36a2.43,2.43,0,0,0-.21.29c1.09,6.48,2.42,15.4,3,24.19C327.17,186.92,329.93,181.49,329.67,173.5Z"
            style="opacity:0.30000000000000004"></path>
        <path
            d="M350.23,154.52c-4.9-1.16-5.76-4.19-5.43-7.52a19.92,19.92,0,0,1,.39-2.48l-6.14-5.1-4.51-3.74c1.25,5.43,2.66,15.32-1,18.94,0,0,3,5,11.43,4.56C352,158.79,350.23,154.52,350.23,154.52Z"
            style="fill:#b55b52"></path>
        <path
            d="M341.6,163.65a11.89,11.89,0,0,1,2.76-4.44,25.48,25.48,0,0,1-10-6.12l-2.57,1S332.7,160.62,341.6,163.65Z"
            style="fill:#fff"></path>
        <path
            d="M348.46,162.53a12.41,12.41,0,0,0-4.1-3.32c2.47-.7,3.43-5.71,3.43-5.71l2.41.5S354.65,160.53,348.46,162.53Z"
            style="fill:#fff"></path>
        <path
            d="M345.19,144.52a19.92,19.92,0,0,0-.39,2.48c-2.29-.46-5.35-2.9-5.67-5.24a10.66,10.66,0,0,1-.08-2.34Z"
            style="opacity:0.2"></path>
        <path d="M348.05,117.85c3.09-.56,6.69,2.68,5,9.26S343.33,118.7,348.05,117.85Z"
            style="fill:#263238"></path>
        <path
            d="M332.68,127.87c1.57,7.21,2.12,11.5,6.38,14.79a9.59,9.59,0,0,0,15.51-6.91c.56-6.71-2.09-17.37-9.68-19.41A9.7,9.7,0,0,0,332.68,127.87Z"
            style="fill:#b55b52"></path>
        <path
            d="M335.58,135.68c1.06-2.5,2-9.46,1.14-12.35,3.45-.11,10.7-.75,13.72-4.11,4.64-5.16-1.48-11.26-9.18-6.4-5,3.13-15.79,2.51-14,6C322,124.61,327.91,131.15,335.58,135.68Z"
            style="fill:#263238"></path>
        <path
            d="M327.25,119.08a.25.25,0,0,1-.19-.09c-.64-.79-.84-1.45-.62-2,.53-1.32,3.28-1.68,6.45-2.08,3-.38,6.32-.81,7.38-2.16a.26.26,0,0,1,.35,0,.24.24,0,0,1,0,.35c-1.19,1.51-4.5,1.93-7.7,2.34-2.77.36-5.63.72-6,1.78-.15.38,0,.89.53,1.52a.25.25,0,0,1,0,.35A.3.3,0,0,1,327.25,119.08Z"
            style="fill:#263238"></path>
        <path
            d="M331.57,133.69a6.92,6.92,0,0,0,3.68,2.85c1.93.58,2.59-1.2,1.81-3.08-.71-1.7-2.57-4.05-4.38-3.8S330.48,132,331.57,133.69Z"
            style="fill:#b55b52"></path>
        <path d="M343,128.59c.09.59.48,1,.87,1s.62-.56.53-1.15-.48-1-.87-1S342.91,128,343,128.59Z"
            style="fill:#263238"></path>
        <path
            d="M349.71,127.79c.09.59.48,1,.87,1s.63-.57.53-1.16-.48-1-.86-1S349.62,127.2,349.71,127.79Z"
            style="fill:#263238"></path>
        <path d="M348.68,128.34a22.46,22.46,0,0,0,3.62,4.72,3.4,3.4,0,0,1-2.76.86Z"
            style="fill:#a02724"></path>
        <path
            d="M347.36,135.81a5.12,5.12,0,0,1-3.73-1.54.17.17,0,1,1,.26-.23,5,5,0,0,0,4.12,1.38.17.17,0,0,1,.2.15.17.17,0,0,1-.15.19A5.76,5.76,0,0,1,347.36,135.81Z"
            style="fill:#263238"></path>
        <path
            d="M340.81,126.68a.41.41,0,0,1-.17-.05.35.35,0,0,1-.13-.48,3.36,3.36,0,0,1,2.62-1.77.35.35,0,0,1,.37.33.35.35,0,0,1-.33.37,2.66,2.66,0,0,0-2.05,1.42A.35.35,0,0,1,340.81,126.68Z"
            style="fill:#263238"></path>
        <path
            d="M352.72,125.15a.34.34,0,0,1-.29-.16,2.94,2.94,0,0,0-2.22-1.34.35.35,0,1,1,0-.7h0a3.64,3.64,0,0,1,2.8,1.65.36.36,0,0,1-.1.49A.35.35,0,0,1,352.72,125.15Z"
            style="fill:#263238"></path>
        <path
            d="M330.58,165.75c.05-.06,0,0,0,0l0,0-.07.11-.17.28-.36.63c-.25.45-.49.91-.73,1.39-.46,1-.91,2-1.31,3a43.43,43.43,0,0,0-1.9,6.44,48.2,48.2,0,0,0-.81,13.77,18.45,18.45,0,0,0,.39,2.88,15.61,15.61,0,0,0,.95,2.79,32.81,32.81,0,0,0,3.39,5.82,82.72,82.72,0,0,0,9.76,11l.14.14a3.24,3.24,0,0,1-3.73,5.21,52.56,52.56,0,0,1-7.18-4.43,55,55,0,0,1-6.51-5.52,37.5,37.5,0,0,1-5.6-7.11,24.78,24.78,0,0,1-2.15-4.45,26.82,26.82,0,0,1-1.21-4.83,51.17,51.17,0,0,1-.8-8.77,49.23,49.23,0,0,1,.67-8.89,47.2,47.2,0,0,1,2.33-8.74,41.39,41.39,0,0,1,1.85-4.23c.36-.7.73-1.39,1.15-2.08.21-.35.43-.7.66-1.06l.37-.54.5-.69a6.5,6.5,0,0,1,10.37,7.83Z"
            style="fill:#263238"></path>
        <path
            d="M341.84,213.94l4.13-.22-4.79,8s-6.68-.85-6-4.26l.93-1A8.52,8.52,0,0,1,341.84,213.94Z"
            style="fill:#b55b52"></path>
        <polygon points="350.25 216.59 346.65 225.09 341.18 221.75 345.97 213.72 350.25 216.59"
            style="fill:#b55b52"></polygon>
    </g>
</svg>